<svg version="1.1" xmlns="http://www.w3.org/2000/svg" xmlns:xlink="http://www.w3.org/1999/xlink" width="636" height="500"><defs/><g><g transform="translate(-846,-270) scale(1,1)"><rect fill="#C0C0C0" stroke="none" x="871" y="727" width="88" height="32" opacity="0.2"/></g><g transform="translate(-846,-270) scale(1,1)"><rect fill="#ffffff" stroke="none" x="864" y="720" width="88" height="32"/></g><g transform="translate(-846,-270) scale(1,1)"><path fill="none" stroke="#000000" d="M 864 720 L 952 720 L 952 752 L 864 752 L 864 720 Z Z" stroke-miterlimit="10"/></g><g transform="translate(-846,-270) scale(1,1)"><g><path fill="none" stroke="none"/><text fill="#000000" stroke="none" font-family="Arial" font-size="13px" font-style="normal" font-weight="bold" text-decoration="none" x="878.016845703125" y="739.5">RestClient</text></g></g><g transform="translate(-846,-270) scale(1,1)"><rect fill="#C0C0C0" stroke="none" x="1167" y="639" width="112" height="37" opacity="0.2"/></g><g transform="translate(-846,-270) scale(1,1)"><rect fill="#ffffff" stroke="none" x="1160" y="632" width="112" height="37"/></g><g transform="translate(-846,-270) scale(1,1)"><path fill="none" stroke="#000000" d="M 1160 632 L 1272 632 L 1272 669 L 1160 669 L 1160 632 Z Z" stroke-miterlimit="10"/></g><g transform="translate(-846,-270) scale(1,1)"><g><path fill="none" stroke="none"/><text fill="#000000" stroke="none" font-family="Arial" font-size="13px" font-style="normal" font-weight="normal" text-decoration="none" x="1181.66552734375" y="649.5">«Singleton»</text></g></g><g transform="translate(-846,-270) scale(1,1)"><g><path fill="none" stroke="none"/><text fill="#000000" stroke="none" font-family="Arial" font-size="13px" font-style="normal" font-weight="bold" text-decoration="none" x="1178.4345703125" y="664.5">GameMaster</text></g></g><g transform="translate(-846,-270) scale(1,1)"><path fill="none" stroke="#000000" d="M 1176 669 L 1176 744 L 952 744" stroke-miterlimit="10"/></g><g transform="translate(-846,-270) scale(1,1)"><path fill="none" stroke="#000000" d="M 962.1626748576241 739.790482243984 L 952 744 L 962.1626748576241 748.209517756016" stroke-miterlimit="10"/></g><g transform="translate(-846,-270) scale(1,1)"><rect fill="#C0C0C0" stroke="none" x="1103" y="287" width="150.4000000000001" height="15" opacity="0.2"/></g><g transform="translate(-846,-270) scale(1,1)"><rect fill="#C0C0C0" stroke="none" x="1103" y="301" width="376" height="218" opacity="0.2"/></g><g transform="translate(-846,-270) scale(1,1)"><rect fill="#ffffff" stroke="none" x="1096" y="295" width="376" height="217"/></g><g transform="translate(-846,-270) scale(1,1)"><path fill="none" stroke="#000000" d="M 1096 295 L 1472 295 L 1472 512 L 1096 512 L 1096 295 Z Z" stroke-miterlimit="10"/></g><g transform="translate(-846,-270) scale(1,1)"><rect fill="#ffffff" stroke="none" x="1096" y="280" width="150.4000000000001" height="15"/></g><g transform="translate(-846,-270) scale(1,1)"><path fill="none" stroke="#000000" d="M 1096 280 L 1246.4 280 L 1246.4 295 L 1096 295 L 1096 280 Z Z" stroke-miterlimit="10"/></g><g transform="translate(-846,-270) scale(1,1)"><rect fill="#ffffff" stroke="none" x="1096" y="294" width="376" height="218"/></g><g transform="translate(-846,-270) scale(1,1)"><path fill="none" stroke="#000000" d="M 1096 294 L 1472 294 L 1472 512 L 1096 512 L 1096 294 Z Z" stroke-miterlimit="10"/></g><g transform="translate(-846,-270) scale(1,1)"><g><path fill="none" stroke="none"/><text fill="#000000" stroke="none" font-family="Arial" font-size="13px" font-style="normal" font-weight="bold" text-decoration="none" x="1263.04638671875" y="314.5">models</text></g></g><g transform="translate(-846,-270) scale(1,1)"><path fill="none" stroke="#000000" d="M 1232 632 L 1232 464 L 1312 464" stroke-miterlimit="10"/></g><g transform="translate(-846,-270) scale(1,1)"><path fill="none" stroke="#000000" d="M 1301.837325142376 468.209517756016 L 1312 464 L 1301.837325142376 459.790482243984" stroke-miterlimit="10"/></g><g transform="translate(-846,-270) scale(1,1)"><path fill="none" stroke="#000000" d="M 1360 431 L 1360 368" stroke-miterlimit="10" stroke-dasharray="3"/></g><g transform="translate(-846,-270) scale(1,1)"><path fill="none" stroke="#000000" d="M 1364.2095177560159 378.16267485762415 L 1360 368 L 1355.7904822439841 378.16267485762415" stroke-miterlimit="10"/></g><g transform="translate(-846,-270) scale(1,1)"><path fill="none" stroke="#000000" d="M 1360 367 L 1360 432" stroke-miterlimit="10"/></g><g transform="translate(-846,-270) scale(1,1)"><path fill="#000000" stroke="none" d="M 1355.7904822439841 421.83732514237585 L 1360 432 L 1364.2095177560159 421.83732514237585 L 1360 410"/></g><g transform="translate(-846,-270) scale(1,1)"><path fill="none" stroke="#000000" d="M 1355.7904822439841 421.83732514237585 L 1360 432 L 1364.2095177560159 421.83732514237585 L 1360 410 L 1355.7904822439841 421.83732514237585" stroke-miterlimit="10"/></g><g transform="translate(-846,-270) scale(1,1)"><path fill="none" stroke="#000000" d="M 1364.2095177560159 377.16267485762415 L 1360 367 L 1355.7904822439841 377.16267485762415" stroke-miterlimit="10"/></g><g transform="translate(-846,-270) scale(1,1)"><g><path fill="none" stroke="none"/><text fill="#000000" stroke="none" font-family="Arial" font-size="13px" font-style="normal" font-weight="normal" text-decoration="none" x="1365.5" y="388.5">+cells[][]</text></g></g><g transform="translate(-846,-270) scale(1,1)"><g><path fill="none" stroke="none"/><text fill="#000000" stroke="none" font-family="Arial" font-size="13px" font-style="normal" font-weight="normal" text-decoration="none" x="1344.5" y="394.5">*</text></g></g><g transform="translate(-846,-270) scale(1,1)"><rect fill="#C0C0C0" stroke="none" x="1319" y="439" width="97.17724609375" height="47" opacity="0.2"/></g><g transform="translate(-846,-270) scale(1,1)"><rect fill="#ffffff" stroke="none" x="1312" y="432" width="97.17724609375" height="47"/></g><g transform="translate(-846,-270) scale(1,1)"><path fill="none" stroke="#000000" d="M 1312 432 L 1409.17724609375 432 L 1409.17724609375 479 L 1312 479 L 1312 432 Z Z" stroke-miterlimit="10"/></g><g transform="translate(-846,-270) scale(1,1)"><g><path fill="none" stroke="none"/><text fill="#000000" stroke="none" font-family="Arial" font-size="13px" font-style="normal" font-weight="bold" text-decoration="none" x="1343.24365234375" y="451.5">Board</text></g></g><g transform="translate(-846,-270) scale(1,1)"><g><path fill="none" stroke="none"/><text fill="#000000" stroke="none" font-family="Arial" font-size="13px" font-style="normal" font-weight="normal" text-decoration="none" x="1320.5" y="466.5">(from models)</text></g></g><g transform="translate(-846,-270) scale(1,1)"><rect fill="#C0C0C0" stroke="none" x="1319" y="327" width="97.17724609375" height="47" opacity="0.2"/></g><g transform="translate(-846,-270) scale(1,1)"><rect fill="#ffffff" stroke="none" x="1312" y="320" width="97.17724609375" height="47"/></g><g transform="translate(-846,-270) scale(1,1)"><path fill="none" stroke="#000000" d="M 1312 320 L 1409.17724609375 320 L 1409.17724609375 367 L 1312 367 L 1312 320 Z Z" stroke-miterlimit="10"/></g><g transform="translate(-846,-270) scale(1,1)"><g><path fill="none" stroke="none"/><text fill="#000000" stroke="none" font-family="Arial" font-size="13px" font-style="normal" font-weight="bold" text-decoration="none" x="1349.391357421875" y="339.5">Cell</text></g></g><g transform="translate(-846,-270) scale(1,1)"><g><path fill="none" stroke="none"/><text fill="#000000" stroke="none" font-family="Arial" font-size="13px" font-style="normal" font-weight="normal" text-decoration="none" x="1320.5" y="354.5">(from models)</text></g></g><g transform="translate(-846,-270) scale(1,1)"><path fill="none" stroke="#000000" d="M 1312 344 L 1264 344 L 1264 424 L 1222 424" stroke-miterlimit="10"/></g><g transform="translate(-846,-270) scale(1,1)"><path fill="#FFFFFF" stroke="none" d="M 1242.3253497152482 415.580964487968 L 1222 424 L 1242.3253497152482 432.419035512032"/></g><g transform="translate(-846,-270) scale(1,1)"><path fill="none" stroke="#000000" d="M 1242.3253497152482 415.580964487968 L 1222 424 L 1242.3253497152482 432.419035512032 L 1242.3253497152482 415.580964487968" stroke-miterlimit="10"/></g><g transform="translate(-846,-270) scale(1,1)"><path fill="none" stroke="#000000" d="M 1185.5 419 A 11.5 11.5 0 0 1 1162.5 419" stroke-miterlimit="10"/></g><g transform="translate(-846,-270) scale(1,1)"><g><path fill="none" stroke="none"/><text fill="#000000" stroke="none" font-family="Arial" font-size="13px" font-style="normal" font-weight="bold" text-decoration="none" x="1135.029541015625" y="450.5">SerializedCell</text></g></g><g transform="translate(-846,-270) scale(1,1)"><g><path fill="none" stroke="none"/><text fill="#000000" stroke="none" font-family="Arial" font-size="13px" font-style="normal" font-weight="normal" text-decoration="none" x="1134.680419921875" y="465.5">(from models)</text></g></g><g transform="translate(-846,-270) scale(1,1)"><path fill="none" stroke="#000000" d="M 1056.9871939970933 647.6729942165674 A 11.5 11.5 0 0 1 1053.0128060029067 670.3270057834326" stroke-miterlimit="10"/></g><g transform="translate(-846,-270) scale(1,1)"><g><path fill="none" stroke="none"/><text fill="#000000" stroke="none" font-family="Arial" font-size="13px" font-style="normal" font-weight="bold" text-decoration="none" x="1007.734130859375" y="690.5">StatusResponse</text></g></g><g transform="translate(-846,-270) scale(1,1)"><g><path fill="none" stroke="none"/><text fill="#000000" stroke="none" font-family="Arial" font-size="13px" font-style="normal" font-weight="normal" text-decoration="none" x="1006.312255859375" y="705.5">(from RestClient)</text></g></g><g transform="translate(-846,-270) scale(1,1)"><path fill="none" stroke="#000000" d="M 1159 660 L 1066.930419921875 661.0930561266447" stroke-miterlimit="10"/></g><g transform="translate(-846,-270) scale(1,1)"><path fill="none" stroke="#000000" d="M 936 720 L 936 664 L 1000 664" stroke-miterlimit="10"/></g><g transform="translate(-846,-270) scale(1,1)"><path fill="none" stroke="#000000" d="M 989.8373251423759 668.209517756016 L 1000 664 L 989.8373251423758 659.790482243984" stroke-miterlimit="10"/></g><g transform="translate(-846,-270) scale(1,1)"><path fill="none" stroke="#000000" d="M 1158 472 L 1071 647" stroke-miterlimit="10"/></g><g transform="translate(-846,-270) scale(1,1)"><path fill="#000000" stroke="none" d="M 1071.7546689469439 636.0259180438399 L 1071 647 L 1079.2934792984327 639.7737837614372 L 1080.793645087885 627.3001391910362"/></g><g transform="translate(-846,-270) scale(1,1)"><path fill="none" stroke="#000000" d="M 1071.7546689469439 636.0259180438399 L 1071 647 L 1079.2934792984327 639.7737837614372 L 1080.793645087885 627.3001391910362 L 1071.7546689469439 636.0259180438399" stroke-miterlimit="10"/></g><g transform="translate(-846,-270) scale(1,1)"><path fill="none" stroke="#000000" d="M 1157.2453310530561 482.9740819561601 L 1158 472 L 1149.7065207015673 479.2262162385628" stroke-miterlimit="10"/></g><g transform="translate(-846,-270) scale(1,1)"><path fill="none" stroke="#000000" d="M 920.5 411 A 11.5 11.5 0 0 1 897.5 411" stroke-miterlimit="10"/></g><g transform="translate(-846,-270) scale(1,1)"><g><path fill="none" stroke="none"/><text fill="#000000" stroke="none" font-family="Arial" font-size="13px" font-style="normal" font-weight="bold" text-decoration="none" x="872.398681640625" y="442.5">RoundAction</text></g></g><g transform="translate(-846,-270) scale(1,1)"><g><path fill="none" stroke="none"/><text fill="#000000" stroke="none" font-family="Arial" font-size="13px" font-style="normal" font-weight="normal" text-decoration="none" x="860.5" y="457.5">(from RestClient)</text></g></g><g transform="translate(-846,-270) scale(1,1)"><path fill="none" stroke="#000000" d="M 908 719 L 909 423" stroke-miterlimit="10"/></g><g transform="translate(-846,-270) scale(1,1)"><path fill="none" stroke="#000000" d="M 963 424 L 1128 424" stroke-miterlimit="10"/></g><g transform="translate(-846,-270) scale(1,1)"><path fill="none" stroke="#000000" d="M 1117.837325142376 428.209517756016 L 1128 424 L 1117.837325142376 419.790482243984" stroke-miterlimit="10"/></g><g transform="translate(-846,-270) scale(1,1)"><path fill="#C0C0C0" stroke="none" d="M 984.285888671875 538.5 C 984.285888671875 532.1487248 989.434613471875 527 995.785888671875 527 C 1002.137163871875 527 1007.285888671875 532.1487248 1007.285888671875 538.5 C 1007.285888671875 544.8512752 1002.137163871875 550 995.785888671875 550 C 989.434613471875 550 984.285888671875 544.8512752 984.285888671875 538.5 Z" opacity="0.2"/></g><g transform="translate(-846,-270) scale(1,1)"><path fill="#ffffff" stroke="none" d="M 977.285888671875 531.5 C 977.285888671875 525.1487248 982.434613471875 520 988.785888671875 520 C 995.137163871875 520 1000.285888671875 525.1487248 1000.285888671875 531.5 C 1000.285888671875 537.8512752 995.137163871875 543 988.785888671875 543 C 982.434613471875 543 977.285888671875 537.8512752 977.285888671875 531.5 Z"/></g><g transform="translate(-846,-270) scale(1,1)"><path fill="none" stroke="#000000" d="M 977.285888671875 531.5 C 977.285888671875 525.1487248 982.434613471875 520 988.785888671875 520 C 995.137163871875 520 1000.285888671875 525.1487248 1000.285888671875 531.5 C 1000.285888671875 537.8512752 995.137163871875 543 988.785888671875 543 C 982.434613471875 543 977.285888671875 537.8512752 977.285888671875 531.5 Z" stroke-miterlimit="10"/></g><g transform="translate(-846,-270) scale(1,1)"><g><path fill="none" stroke="none"/><text fill="#000000" stroke="none" font-family="Arial" font-size="13px" font-style="normal" font-weight="bold" text-decoration="none" x="928.8037109375" y="562.5">ShortStatusReponse</text></g></g><g transform="translate(-846,-270) scale(1,1)"><g><path fill="none" stroke="none"/><text fill="#000000" stroke="none" font-family="Arial" font-size="13px" font-style="normal" font-weight="normal" text-decoration="none" x="939.667724609375" y="577.5">(from RestClient)</text></g></g><g transform="translate(-846,-270) scale(1,1)"><path fill="none" stroke="#000000" d="M 1038 647 L 1005 584" stroke-miterlimit="10"/></g><g transform="translate(-846,-270) scale(1,1)"><path fill="#FFFFFF" stroke="none" d="M 1021.8889515902018 598.0983443774019 L 1005 584 L 1006.9732572837991 605.9113271093271"/></g><g transform="translate(-846,-270) scale(1,1)"><path fill="none" stroke="#000000" d="M 1021.8889515902018 598.0983443774019 L 1005 584 L 1006.9732572837991 605.9113271093271 L 1021.8889515902018 598.0983443774019" stroke-miterlimit="10"/></g><g transform="translate(-846,-270) scale(1,1)"><path fill="none" stroke="#000000" d="M 931 464 L 967 519" stroke-miterlimit="10"/></g><g transform="translate(-846,-270) scale(1,1)"><path fill="#000000" stroke="none" d="M 957.9122079829344 512.8022555510444 L 967 519 L 964.9564277666378 508.1914935108022 L 954.9514981567235 500.5925666283275"/></g><g transform="translate(-846,-270) scale(1,1)"><path fill="none" stroke="#000000" d="M 957.9122079829344 512.8022555510444 L 967 519 L 964.9564277666378 508.1914935108022 L 954.9514981567235 500.5925666283275 L 957.9122079829344 512.8022555510444" stroke-miterlimit="10"/></g><g transform="translate(-846,-270) scale(1,1)"><path fill="none" stroke="#000000" d="M 940.0877920170656 470.19774444895563 L 931 464 L 933.0435722333622 474.8085064891978" stroke-miterlimit="10"/></g><g transform="translate(-846,-270) scale(1,1)"><path fill="none" stroke="#000000" d="M 1174 632 L 1174 431" stroke-miterlimit="10"/></g><g transform="translate(-846,-270) scale(1,1)"><rect fill="#C0C0C0" stroke="none" x="1319" y="527" width="64" height="15" opacity="0.2"/></g><g transform="translate(-846,-270) scale(1,1)"><rect fill="#C0C0C0" stroke="none" x="1319" y="541" width="160" height="226" opacity="0.2"/></g><g transform="translate(-846,-270) scale(1,1)"><rect fill="#ffffff" stroke="none" x="1312" y="535" width="160" height="225"/></g><g transform="translate(-846,-270) scale(1,1)"><path fill="none" stroke="#000000" d="M 1312 535 L 1472 535 L 1472 760 L 1312 760 L 1312 535 Z Z" stroke-miterlimit="10"/></g><g transform="translate(-846,-270) scale(1,1)"><rect fill="#ffffff" stroke="none" x="1312" y="520" width="64" height="15"/></g><g transform="translate(-846,-270) scale(1,1)"><path fill="none" stroke="#000000" d="M 1312 520 L 1376 520 L 1376 535 L 1312 535 L 1312 520 Z Z" stroke-miterlimit="10"/></g><g transform="translate(-846,-270) scale(1,1)"><rect fill="#ffffff" stroke="none" x="1312" y="534" width="160" height="226"/></g><g transform="translate(-846,-270) scale(1,1)"><path fill="none" stroke="#000000" d="M 1312 534 L 1472 534 L 1472 760 L 1312 760 L 1312 534 Z Z" stroke-miterlimit="10"/></g><g transform="translate(-846,-270) scale(1,1)"><g><path fill="none" stroke="none"/><text fill="#000000" stroke="none" font-family="Arial" font-size="13px" font-style="normal" font-weight="bold" text-decoration="none" x="1371.405029296875" y="554.5">scenes</text></g></g><g transform="translate(-846,-270) scale(1,1)"><path fill="none" stroke="#000000" d="M 1336 580 L 1256 580 L 1256 632" stroke-miterlimit="10"/></g><g transform="translate(-846,-270) scale(1,1)"><path fill="none" stroke="#000000" d="M 1251.7904822439841 621.8373251423759 L 1256 632 L 1260.2095177560159 621.8373251423759" stroke-miterlimit="10"/></g><g transform="translate(-846,-270) scale(1,1)"><path fill="none" stroke="#000000" d="M 1440 568 L 1440 344 L 1409 344" stroke-miterlimit="10" stroke-dasharray="3"/></g><g transform="translate(-846,-270) scale(1,1)"><path fill="none" stroke="#000000" d="M 1419.162674857624 339.790482243984 L 1409 344 L 1419.162674857624 348.209517756016" stroke-miterlimit="10"/></g><g transform="translate(-846,-270) scale(1,1)"><path fill="none" stroke="#000000" d="M 1360 568 L 1360 479" stroke-miterlimit="10" stroke-dasharray="3"/></g><g transform="translate(-846,-270) scale(1,1)"><path fill="none" stroke="#000000" d="M 1364.2095177560159 489.16267485762415 L 1360 479 L 1355.7904822439841 489.16267485762415" stroke-miterlimit="10"/></g><g transform="translate(-846,-270) scale(1,1)"><rect fill="#C0C0C0" stroke="none" x="1343" y="575" width="112" height="40" opacity="0.2"/></g><g transform="translate(-846,-270) scale(1,1)"><rect fill="#ffffff" stroke="none" x="1336" y="568" width="112" height="40"/></g><g transform="translate(-846,-270) scale(1,1)"><path fill="none" stroke="#000000" d="M 1336 568 L 1448 568 L 1448 608 L 1336 608 L 1336 568 Z Z" stroke-miterlimit="10"/></g><g transform="translate(-846,-270) scale(1,1)"><g><path fill="none" stroke="none"/><text fill="#000000" stroke="none" font-family="Arial" font-size="13px" font-style="normal" font-weight="bold" text-decoration="none" x="1356.224609375" y="587.5">BoardScene</text></g></g><g transform="translate(-846,-270) scale(1,1)"><g><path fill="none" stroke="none"/><text fill="#000000" stroke="none" font-family="Arial" font-size="13px" font-style="normal" font-weight="normal" text-decoration="none" x="1352.27001953125" y="602.5">(from scenes)</text></g></g><g transform="translate(-846,-270) scale(1,1)"><path fill="none" stroke="#000000" d="M 1336 648 L 1272 648" stroke-miterlimit="10"/></g><g transform="translate(-846,-270) scale(1,1)"><path fill="none" stroke="#000000" d="M 1282.162674857624 643.790482243984 L 1272 648 L 1282.162674857624 652.209517756016" stroke-miterlimit="10"/></g><g transform="translate(-846,-270) scale(1,1)"><path fill="none" stroke="#000000" d="M 1400 632 L 1400 608" stroke-miterlimit="10" stroke-dasharray="3"/></g><g transform="translate(-846,-270) scale(1,1)"><path fill="none" stroke="#000000" d="M 1404.2095177560159 618.1626748576241 L 1400 608 L 1395.7904822439841 618.1626748576241" stroke-miterlimit="10"/></g><g transform="translate(-846,-270) scale(1,1)"><rect fill="#C0C0C0" stroke="none" x="1343" y="639" width="120" height="40" opacity="0.2"/></g><g transform="translate(-846,-270) scale(1,1)"><rect fill="#ffffff" stroke="none" x="1336" y="632" width="120" height="40"/></g><g transform="translate(-846,-270) scale(1,1)"><path fill="none" stroke="#000000" d="M 1336 632 L 1456 632 L 1456 672 L 1336 672 L 1336 632 Z Z" stroke-miterlimit="10"/></g><g transform="translate(-846,-270) scale(1,1)"><g><path fill="none" stroke="none"/><text fill="#000000" stroke="none" font-family="Arial" font-size="13px" font-style="normal" font-weight="bold" text-decoration="none" x="1354.435546875" y="651.5">LoadingScene</text></g></g><g transform="translate(-846,-270) scale(1,1)"><g><path fill="none" stroke="none"/><text fill="#000000" stroke="none" font-family="Arial" font-size="13px" font-style="normal" font-weight="normal" text-decoration="none" x="1356.27001953125" y="666.5">(from scenes)</text></g></g><g transform="translate(-846,-270) scale(1,1)"><path fill="none" stroke="#000000" d="M 1336 722 L 1256 722 L 1256 669" stroke-miterlimit="10"/></g><g transform="translate(-846,-270) scale(1,1)"><path fill="none" stroke="#000000" d="M 1260.2095177560159 679.1626748576241 L 1256 669 L 1251.7904822439841 679.1626748576241" stroke-miterlimit="10"/></g><g transform="translate(-846,-270) scale(1,1)"><path fill="none" stroke="#000000" d="M 1400 672 L 1400 704" stroke-miterlimit="10" stroke-dasharray="3"/></g><g transform="translate(-846,-270) scale(1,1)"><path fill="none" stroke="#000000" d="M 1395.7904822439841 693.8373251423759 L 1400 704 L 1404.2095177560159 693.8373251423759" stroke-miterlimit="10"/></g><g transform="translate(-846,-270) scale(1,1)"><rect fill="#C0C0C0" stroke="none" x="1343" y="711" width="113.0634765625" height="41" opacity="0.2"/></g><g transform="translate(-846,-270) scale(1,1)"><rect fill="#ffffff" stroke="none" x="1336" y="704" width="113.0634765625" height="41"/></g><g transform="translate(-846,-270) scale(1,1)"><path fill="none" stroke="#000000" d="M 1336 704 L 1449.0634765625 704 L 1449.0634765625 745 L 1336 745 L 1336 704 Z Z" stroke-miterlimit="10"/></g><g transform="translate(-846,-270) scale(1,1)"><g><path fill="none" stroke="none"/><text fill="#000000" stroke="none" font-family="Arial" font-size="13px" font-style="normal" font-weight="bold" text-decoration="none" x="1342.3154296875" y="723.5">GameOverScene</text></g></g><g transform="translate(-846,-270) scale(1,1)"><g><path fill="none" stroke="none"/><text fill="#000000" stroke="none" font-family="Arial" font-size="13px" font-style="normal" font-weight="normal" text-decoration="none" x="1352.8017578125" y="738.5">(from scenes)</text></g></g><g transform="translate(-846,-270) scale(1,1)"><path fill="none" stroke="#000000" d="M 1173 407 L 1173 368" stroke-miterlimit="10"/></g><g transform="translate(-846,-270) scale(1,1)"><path fill="none" stroke="#000000" d="M 1177.2095177560159 378.16267485762415 L 1173 368 L 1168.7904822439841 378.16267485762415" stroke-miterlimit="10"/></g><g transform="translate(-846,-270) scale(1,1)"><g><path fill="none" stroke="none"/><text fill="#000000" stroke="none" font-family="Arial" font-size="13px" font-style="normal" font-weight="normal" text-decoration="none" x="1117.5" y="379.5">+player</text></g></g><g transform="translate(-846,-270) scale(1,1)"><g><path fill="none" stroke="none"/><text fill="#000000" stroke="none" font-family="Arial" font-size="13px" font-style="normal" font-weight="normal" text-decoration="none" x="1182.5" y="380.5">0..1</text></g></g><g transform="translate(-846,-270) scale(1,1)"><path fill="#C0C0C0" stroke="none" d="M 1168.088623046875 322.5 C 1168.088623046875 316.1487248 1173.237347846875 311 1179.588623046875 311 C 1185.939898246875 311 1191.088623046875 316.1487248 1191.088623046875 322.5 C 1191.088623046875 328.8512752 1185.939898246875 334 1179.588623046875 334 C 1173.237347846875 334 1168.088623046875 328.8512752 1168.088623046875 322.5 Z" opacity="0.2"/></g><g transform="translate(-846,-270) scale(1,1)"><path fill="#ffffff" stroke="none" d="M 1161.088623046875 315.5 C 1161.088623046875 309.1487248 1166.237347846875 304 1172.588623046875 304 C 1178.939898246875 304 1184.088623046875 309.1487248 1184.088623046875 315.5 C 1184.088623046875 321.8512752 1178.939898246875 327 1172.588623046875 327 C 1166.237347846875 327 1161.088623046875 321.8512752 1161.088623046875 315.5 Z"/></g><g transform="translate(-846,-270) scale(1,1)"><path fill="none" stroke="#000000" d="M 1161.088623046875 315.5 C 1161.088623046875 309.1487248 1166.237347846875 304 1172.588623046875 304 C 1178.939898246875 304 1184.088623046875 309.1487248 1184.088623046875 315.5 C 1184.088623046875 321.8512752 1178.939898246875 327 1172.588623046875 327 C 1166.237347846875 327 1161.088623046875 321.8512752 1161.088623046875 315.5 Z" stroke-miterlimit="10"/></g><g transform="translate(-846,-270) scale(1,1)"><g><path fill="none" stroke="none"/><text fill="#000000" stroke="none" font-family="Arial" font-size="13px" font-style="normal" font-weight="bold" text-decoration="none" x="1154.16455078125" y="346.5">Player</text></g></g><g transform="translate(-846,-270) scale(1,1)"><g><path fill="none" stroke="none"/><text fill="#000000" stroke="none" font-family="Arial" font-size="13px" font-style="normal" font-weight="normal" text-decoration="none" x="1132.5" y="361.5">(from models)</text></g></g></g></svg>