<svg version="1.1" xmlns="http://www.w3.org/2000/svg" xmlns:xlink="http://www.w3.org/1999/xlink" width="1232.86669921875" height="956"><defs/><g><g transform="translate(-110,-326) scale(1,1)"><rect fill="#C0C0C0" stroke="none" x="127" y="343" width="314.271484375" height="160" opacity="0.2"/></g><g transform="translate(-110,-326) scale(1,1)"><rect fill="#ffffff" stroke="none" x="120" y="336" width="314.271484375" height="160"/></g><g transform="translate(-110,-326) scale(1,1)"><path fill="none" stroke="#000000" d="M 120 336 L 434.271484375 336 L 434.271484375 496 L 120 496 L 120 336 Z Z" stroke-miterlimit="10"/></g><g transform="translate(-110,-326) scale(1,1)"><path fill="none" stroke="#000000" d="M 120 361 L 434.271484375 361" stroke-miterlimit="10"/></g><g transform="translate(-110,-326) scale(1,1)"><path fill="none" stroke="#000000" d="M 120 429 L 434.271484375 429" stroke-miterlimit="10"/></g><g transform="translate(-110,-326) scale(1,1)"><g><path fill="none" stroke="none"/><text fill="#000000" stroke="none" font-family="Arial" font-size="13px" font-style="normal" font-weight="bold" text-decoration="none" x="234.857177734375" y="355.5">ApiConnection</text></g></g><g transform="translate(-110,-326) scale(1,1)"><g><path fill="none" stroke="none"/><text fill="#000000" stroke="none" font-family="Arial" font-size="13px" font-style="normal" font-weight="normal" text-decoration="none" x="125" y="378.5">-http: HttpClient</text></g></g><g transform="translate(-110,-326) scale(1,1)"><g><path fill="none" stroke="none"/><text fill="#000000" stroke="none" font-family="Arial" font-size="13px" font-style="normal" font-weight="normal" text-decoration="none" x="125" y="393.5">+url: string {readOnly}</text></g></g><g transform="translate(-110,-326) scale(1,1)"><g><path fill="none" stroke="none"/><text fill="#000000" stroke="none" font-family="Arial" font-size="13px" font-style="normal" font-weight="normal" text-decoration="none" x="125" y="408.5">+name: string {readOnly}</text></g></g><g transform="translate(-110,-326) scale(1,1)"><g><path fill="none" stroke="none"/><text fill="#000000" stroke="none" font-family="Arial" font-size="13px" font-style="normal" font-weight="normal" text-decoration="none" x="125" y="423.5">+status: boolean</text></g></g><g transform="translate(-110,-326) scale(1,1)"><g><path fill="none" stroke="none"/><text fill="#000000" stroke="none" font-family="Arial" font-size="13px" font-style="normal" font-weight="normal" text-decoration="none" x="125" y="446.5">+get&lt;T&gt;(url: string, params): HttpResponse&lt;T&gt;</text></g></g><g transform="translate(-110,-326) scale(1,1)"><g><path fill="none" stroke="none"/><text fill="#000000" stroke="none" font-family="Arial" font-size="13px" font-style="normal" font-weight="normal" text-decoration="none" x="125" y="461.5">+getText(url: string, params): HttpResponse&lt;string&gt;</text></g></g><g transform="translate(-110,-326) scale(1,1)"><g><path fill="none" stroke="none"/><text fill="#000000" stroke="none" font-family="Arial" font-size="13px" font-style="normal" font-weight="normal" text-decoration="none" x="125" y="476.5">+post&lt;T&gt;(url: string, params): HttpResponse&lt;T&gt;</text></g></g><g transform="translate(-110,-326) scale(1,1)"><g><path fill="none" stroke="none"/><text fill="#000000" stroke="none" font-family="Arial" font-size="13px" font-style="normal" font-weight="normal" text-decoration="none" x="125" y="491.5">+postText(url: string, params): HttpResponse&lt;string&gt;</text></g></g><g transform="translate(-110,-326) scale(1,1)"><rect fill="#C0C0C0" stroke="none" x="615" y="343" width="354.30615234375" height="100" opacity="0.2"/></g><g transform="translate(-110,-326) scale(1,1)"><rect fill="#ffffff" stroke="none" x="608" y="336" width="354.30615234375" height="100"/></g><g transform="translate(-110,-326) scale(1,1)"><path fill="none" stroke="#000000" d="M 608 336 L 962.30615234375 336 L 962.30615234375 436 L 608 436 L 608 336 Z Z" stroke-miterlimit="10"/></g><g transform="translate(-110,-326) scale(1,1)"><path fill="none" stroke="#000000" d="M 608 361 L 962.30615234375 361" stroke-miterlimit="10"/></g><g transform="translate(-110,-326) scale(1,1)"><path fill="none" stroke="#000000" d="M 608 384 L 962.30615234375 384" stroke-miterlimit="10"/></g><g transform="translate(-110,-326) scale(1,1)"><g><path fill="none" stroke="none"/><text fill="#000000" stroke="none" font-family="Arial" font-size="13px" font-style="italic" font-weight="bold" text-decoration="none" x="734.93994140625" y="355.5">ApiServerService</text></g></g><g transform="translate(-110,-326) scale(1,1)"><g><path fill="none" stroke="none"/><text fill="#000000" stroke="none" font-family="Arial" font-size="13px" font-style="normal" font-weight="normal" text-decoration="none" x="613" y="378.5">+statusUrl: string {readOnly}</text></g></g><g transform="translate(-110,-326) scale(1,1)"><g><path fill="none" stroke="none"/><text fill="#000000" stroke="none" font-family="Arial" font-size="13px" font-style="normal" font-weight="normal" text-decoration="none" x="613" y="401.5">«set»+apiConnection(api: ApiConnection)</text></g></g><g transform="translate(-110,-326) scale(1,1)"><g><path fill="none" stroke="none"/><text fill="#000000" stroke="none" font-family="Arial" font-size="13px" font-style="normal" font-weight="normal" text-decoration="none" x="613" y="416.5">+statusValidator(response: HttpResponse&lt;string&gt;): boolean</text></g></g><g transform="translate(-110,-326) scale(1,1)"><g><path fill="none" stroke="none"/><text fill="#000000" stroke="none" font-family="Arial" font-size="13px" font-style="normal" font-weight="normal" text-decoration="none" x="613" y="431.5">#validRequest()</text></g></g><g transform="translate(-110,-326) scale(1,1)"><path fill="none" stroke="#000000" d="M 608 363 L 434 363" stroke-miterlimit="10"/></g><g transform="translate(-110,-326) scale(1,1)"><g><path fill="none" stroke="none"/><text fill="#000000" stroke="none" font-family="Arial" font-size="13px" font-style="normal" font-weight="normal" text-decoration="none" x="550.5" y="383.5">+service</text></g></g><g transform="translate(-110,-326) scale(1,1)"><g><path fill="none" stroke="none"/><text fill="#000000" stroke="none" font-family="Arial" font-size="13px" font-style="normal" font-weight="normal" text-decoration="none" x="543.5" y="397.5">{readOnly}</text></g></g><g transform="translate(-110,-326) scale(1,1)"><g><path fill="none" stroke="none"/><text fill="#000000" stroke="none" font-family="Arial" font-size="13px" font-style="normal" font-weight="normal" text-decoration="none" x="582.5" y="356.5">1</text></g></g><g transform="translate(-110,-326) scale(1,1)"><g><path fill="none" stroke="none"/><text fill="#000000" stroke="none" font-family="Arial" font-size="13px" font-style="normal" font-weight="normal" text-decoration="none" x="442.595458984375" y="381.5">#api</text></g></g><g transform="translate(-110,-326) scale(1,1)"><g><path fill="none" stroke="none"/><text fill="#000000" stroke="none" font-family="Arial" font-size="13px" font-style="normal" font-weight="normal" text-decoration="none" x="451.5" y="356.5">1</text></g></g><g transform="translate(-110,-326) scale(1,1)"><rect fill="#C0C0C0" stroke="none" x="343" y="639" width="390.18310546875" height="160" opacity="0.2"/></g><g transform="translate(-110,-326) scale(1,1)"><rect fill="#ffffff" stroke="none" x="336" y="632" width="390.18310546875" height="160"/></g><g transform="translate(-110,-326) scale(1,1)"><path fill="none" stroke="#000000" d="M 336 632 L 726.18310546875 632 L 726.18310546875 792 L 336 792 L 336 632 Z Z" stroke-miterlimit="10"/></g><g transform="translate(-110,-326) scale(1,1)"><path fill="none" stroke="#000000" d="M 336 657 L 726.18310546875 657" stroke-miterlimit="10"/></g><g transform="translate(-110,-326) scale(1,1)"><path fill="none" stroke="#000000" d="M 336 695 L 726.18310546875 695" stroke-miterlimit="10"/></g><g transform="translate(-110,-326) scale(1,1)"><g><path fill="none" stroke="none"/><text fill="#000000" stroke="none" font-family="Arial" font-size="13px" font-style="normal" font-weight="bold" text-decoration="none" x="478.348876953125" y="651.5">HubServerService</text></g></g><g transform="translate(-110,-326) scale(1,1)"><g><path fill="none" stroke="none"/><text fill="#000000" stroke="none" font-family="Arial" font-size="13px" font-style="normal" font-weight="normal" text-decoration="none" x="341" y="674.5">-socket: Socket</text></g></g><g transform="translate(-110,-326) scale(1,1)"><g><path fill="none" stroke="none"/><text fill="#000000" stroke="none" font-family="Arial" font-size="13px" font-style="normal" font-weight="normal" text-decoration="none" x="341" y="689.5">+chatMessageReceived: EventEmitter&lt;ChatMessage&gt; {readOnly}</text></g></g><g transform="translate(-110,-326) scale(1,1)"><g><path fill="none" stroke="none"/><text fill="#000000" stroke="none" font-family="Arial" font-size="13px" font-style="normal" font-weight="normal" text-decoration="none" x="341" y="712.5">+servers(): GameServer[*]</text></g></g><g transform="translate(-110,-326) scale(1,1)"><g><path fill="none" stroke="none"/><text fill="#000000" stroke="none" font-family="Arial" font-size="13px" font-style="normal" font-weight="normal" text-decoration="none" x="341" y="727.5">+deleteServer(server: GameServer): boolean</text></g></g><g transform="translate(-110,-326) scale(1,1)"><g><path fill="none" stroke="none"/><text fill="#000000" stroke="none" font-family="Arial" font-size="13px" font-style="normal" font-weight="normal" text-decoration="none" x="341" y="742.5">+createServer(server: GameServer): boolean</text></g></g><g transform="translate(-110,-326) scale(1,1)"><g><path fill="none" stroke="none"/><text fill="#000000" stroke="none" font-family="Arial" font-size="13px" font-style="normal" font-weight="normal" text-decoration="none" x="341" y="757.5">+joinServer(server: string): GameServer</text></g></g><g transform="translate(-110,-326) scale(1,1)"><g><path fill="none" stroke="none"/><text fill="#000000" stroke="none" font-family="Arial" font-size="13px" font-style="normal" font-weight="normal" text-decoration="none" x="341" y="772.5">+leaveServer(server: string)</text></g></g><g transform="translate(-110,-326) scale(1,1)"><g><path fill="none" stroke="none"/><text fill="#000000" stroke="none" font-family="Arial" font-size="13px" font-style="normal" font-weight="normal" text-decoration="none" x="341" y="787.5">+sendChatMessage(server: string, message: string)</text></g></g><g transform="translate(-110,-326) scale(1,1)"><path fill="none" stroke="#000000" d="M 664 632 L 664 436" stroke-miterlimit="10"/></g><g transform="translate(-110,-326) scale(1,1)"><path fill="#FFFFFF" stroke="none" d="M 672.419035512032 456.3253497152483 L 664 436 L 655.580964487968 456.3253497152483"/></g><g transform="translate(-110,-326) scale(1,1)"><path fill="none" stroke="#000000" d="M 672.419035512032 456.3253497152483 L 664 436 L 655.580964487968 456.3253497152483 L 672.419035512032 456.3253497152483" stroke-miterlimit="10"/></g><g transform="translate(-110,-326) scale(1,1)"><rect fill="#C0C0C0" stroke="none" x="127" y="599" width="119.60986328125" height="105" opacity="0.2"/></g><g transform="translate(-110,-326) scale(1,1)"><rect fill="#ffffff" stroke="none" x="120" y="592" width="119.60986328125" height="105"/></g><g transform="translate(-110,-326) scale(1,1)"><path fill="none" stroke="#000000" d="M 120 592 L 239.60986328125 592 L 239.60986328125 697 L 120 697 L 120 592 Z Z" stroke-miterlimit="10"/></g><g transform="translate(-110,-326) scale(1,1)"><path fill="#ffffff" stroke="none" d="M 213.60986328125 609 C 213.60986328125 604.0294368 217.63930008125 600 222.60986328125 600 C 227.58042648125 600 231.60986328125 604.0294368 231.60986328125 609 C 231.60986328125 613.9705632 227.58042648125 618 222.60986328125 618 C 217.63930008125 618 213.60986328125 613.9705632 213.60986328125 609 Z"/></g><g transform="translate(-110,-326) scale(1,1)"><path fill="none" stroke="#000000" d="M 213.60986328125 609 C 213.60986328125 604.0294368 217.63930008125 600 222.60986328125 600 C 227.58042648125 600 231.60986328125 604.0294368 231.60986328125 609 C 231.60986328125 613.9705632 227.58042648125 618 222.60986328125 618 C 217.63930008125 618 213.60986328125 613.9705632 213.60986328125 609 Z" stroke-miterlimit="10"/></g><g transform="translate(-110,-326) scale(1,1)"><path fill="none" stroke="#000000" d="M 120 630 L 239.60986328125 630" stroke-miterlimit="10"/></g><g transform="translate(-110,-326) scale(1,1)"><g><path fill="none" stroke="none"/><text fill="#000000" stroke="none" font-family="Arial" font-size="13px" font-style="normal" font-weight="normal" text-decoration="none" x="135.64453125" y="609.5">«interface»</text></g></g><g transform="translate(-110,-326) scale(1,1)"><g><path fill="none" stroke="none"/><text fill="#000000" stroke="none" font-family="Arial" font-size="13px" font-style="normal" font-weight="bold" text-decoration="none" x="130.9599609375" y="624.5">GameServer</text></g></g><g transform="translate(-110,-326) scale(1,1)"><g><path fill="none" stroke="none"/><text fill="#000000" stroke="none" font-family="Arial" font-size="13px" font-style="normal" font-weight="normal" text-decoration="none" x="125" y="647.5">+name: string</text></g></g><g transform="translate(-110,-326) scale(1,1)"><g><path fill="none" stroke="none"/><text fill="#000000" stroke="none" font-family="Arial" font-size="13px" font-style="normal" font-weight="normal" text-decoration="none" x="125" y="662.5">+host: string</text></g></g><g transform="translate(-110,-326) scale(1,1)"><g><path fill="none" stroke="none"/><text fill="#000000" stroke="none" font-family="Arial" font-size="13px" font-style="normal" font-weight="normal" text-decoration="none" x="125" y="677.5">+port: string</text></g></g><g transform="translate(-110,-326) scale(1,1)"><g><path fill="none" stroke="none"/><text fill="#000000" stroke="none" font-family="Arial" font-size="13px" font-style="normal" font-weight="normal" text-decoration="none" x="125" y="692.5">+owner: string</text></g></g><g transform="translate(-110,-326) scale(1,1)"><path fill="none" stroke="#000000" d="M 336 664 L 240 664" stroke-miterlimit="10"/></g><g transform="translate(-110,-326) scale(1,1)"><rect fill="#C0C0C0" stroke="none" x="127" y="735" width="126.80810546875" height="105" opacity="0.2"/></g><g transform="translate(-110,-326) scale(1,1)"><rect fill="#ffffff" stroke="none" x="120" y="728" width="126.80810546875" height="105"/></g><g transform="translate(-110,-326) scale(1,1)"><path fill="none" stroke="#000000" d="M 120 728 L 246.80810546875 728 L 246.80810546875 833 L 120 833 L 120 728 Z Z" stroke-miterlimit="10"/></g><g transform="translate(-110,-326) scale(1,1)"><path fill="#ffffff" stroke="none" d="M 220.80810546875 745 C 220.80810546875 740.0294368 224.83754226875 736 229.80810546875 736 C 234.77866866875 736 238.80810546875 740.0294368 238.80810546875 745 C 238.80810546875 749.9705632 234.77866866875 754 229.80810546875 754 C 224.83754226875 754 220.80810546875 749.9705632 220.80810546875 745 Z"/></g><g transform="translate(-110,-326) scale(1,1)"><path fill="none" stroke="#000000" d="M 220.80810546875 745 C 220.80810546875 740.0294368 224.83754226875 736 229.80810546875 736 C 234.77866866875 736 238.80810546875 740.0294368 238.80810546875 745 C 238.80810546875 749.9705632 234.77866866875 754 229.80810546875 754 C 224.83754226875 754 220.80810546875 749.9705632 220.80810546875 745 Z" stroke-miterlimit="10"/></g><g transform="translate(-110,-326) scale(1,1)"><path fill="none" stroke="#000000" d="M 120 766 L 246.80810546875 766" stroke-miterlimit="10"/></g><g transform="translate(-110,-326) scale(1,1)"><g><path fill="none" stroke="none"/><text fill="#000000" stroke="none" font-family="Arial" font-size="13px" font-style="normal" font-weight="normal" text-decoration="none" x="139.24365234375" y="745.5">«interface»</text></g></g><g transform="translate(-110,-326) scale(1,1)"><g><path fill="none" stroke="none"/><text fill="#000000" stroke="none" font-family="Arial" font-size="13px" font-style="normal" font-weight="bold" text-decoration="none" x="131.299560546875" y="760.5">ChatMessage</text></g></g><g transform="translate(-110,-326) scale(1,1)"><g><path fill="none" stroke="none"/><text fill="#000000" stroke="none" font-family="Arial" font-size="13px" font-style="normal" font-weight="normal" text-decoration="none" x="125" y="783.5">+user: string</text></g></g><g transform="translate(-110,-326) scale(1,1)"><g><path fill="none" stroke="none"/><text fill="#000000" stroke="none" font-family="Arial" font-size="13px" font-style="normal" font-weight="normal" text-decoration="none" x="125" y="798.5">+time: number</text></g></g><g transform="translate(-110,-326) scale(1,1)"><g><path fill="none" stroke="none"/><text fill="#000000" stroke="none" font-family="Arial" font-size="13px" font-style="normal" font-weight="normal" text-decoration="none" x="125" y="813.5">+message: string</text></g></g><g transform="translate(-110,-326) scale(1,1)"><g><path fill="none" stroke="none"/><text fill="#000000" stroke="none" font-family="Arial" font-size="13px" font-style="normal" font-weight="normal" text-decoration="none" x="125" y="828.5">+server: string</text></g></g><g transform="translate(-110,-326) scale(1,1)"><path fill="none" stroke="#000000" d="M 336 744 L 247 744" stroke-miterlimit="10"/></g><g transform="translate(-110,-326) scale(1,1)"><rect fill="#C0C0C0" stroke="none" x="863" y="647" width="476.86669921875" height="132" opacity="0.2"/></g><g transform="translate(-110,-326) scale(1,1)"><rect fill="#ffffff" stroke="none" x="856" y="640" width="476.86669921875" height="132"/></g><g transform="translate(-110,-326) scale(1,1)"><path fill="none" stroke="#000000" d="M 856 640 L 1332.86669921875 640 L 1332.86669921875 772 L 856 772 L 856 640 Z Z" stroke-miterlimit="10"/></g><g transform="translate(-110,-326) scale(1,1)"><path fill="none" stroke="#000000" d="M 856 665 L 1332.86669921875 665" stroke-miterlimit="10"/></g><g transform="translate(-110,-326) scale(1,1)"><path fill="none" stroke="#000000" d="M 856 675 L 1332.86669921875 675" stroke-miterlimit="10"/></g><g transform="translate(-110,-326) scale(1,1)"><g><path fill="none" stroke="none"/><text fill="#000000" stroke="none" font-family="Arial" font-size="13px" font-style="normal" font-weight="bold" text-decoration="none" x="1040.243408203125" y="659.5">AuthServerService</text></g></g><g transform="translate(-110,-326) scale(1,1)"><g><path fill="none" stroke="none"/><text fill="#000000" stroke="none" font-family="Arial" font-size="13px" font-style="normal" font-weight="normal" text-decoration="none" x="861" y="692.5">+login(username: string, password: string): { token: string, errorCode: number }</text></g></g><g transform="translate(-110,-326) scale(1,1)"><g><path fill="none" stroke="none"/><text fill="#000000" stroke="none" font-family="Arial" font-size="13px" font-style="normal" font-weight="normal" text-decoration="none" x="861" y="707.5">+checkToken(token: string): boolean</text></g></g><g transform="translate(-110,-326) scale(1,1)"><g><path fill="none" stroke="none"/><text fill="#000000" stroke="none" font-family="Arial" font-size="13px" font-style="normal" font-weight="normal" text-decoration="none" x="861" y="722.5">+signup(username: string, password: string): { code: number, text: string }</text></g></g><g transform="translate(-110,-326) scale(1,1)"><g><path fill="none" stroke="none"/><text fill="#000000" stroke="none" font-family="Arial" font-size="13px" font-style="normal" font-weight="normal" text-decoration="none" x="861" y="737.5">+userInfo(token: string): UserInfo</text></g></g><g transform="translate(-110,-326) scale(1,1)"><g><path fill="none" stroke="none"/><text fill="#000000" stroke="none" font-family="Arial" font-size="13px" font-style="normal" font-weight="normal" text-decoration="none" x="861" y="752.5">+usernameInfo(username: string): UserInfo</text></g></g><g transform="translate(-110,-326) scale(1,1)"><g><path fill="none" stroke="none"/><text fill="#000000" stroke="none" font-family="Arial" font-size="13px" font-style="normal" font-weight="normal" text-decoration="none" x="861" y="767.5">+users(): UserInfo[*]</text></g></g><g transform="translate(-110,-326) scale(1,1)"><path fill="none" stroke="#000000" d="M 920 640 L 920 436" stroke-miterlimit="10"/></g><g transform="translate(-110,-326) scale(1,1)"><path fill="#FFFFFF" stroke="none" d="M 928.419035512032 456.3253497152483 L 920 436 L 911.580964487968 456.3253497152483"/></g><g transform="translate(-110,-326) scale(1,1)"><path fill="none" stroke="#000000" d="M 928.419035512032 456.3253497152483 L 920 436 L 911.580964487968 456.3253497152483 L 928.419035512032 456.3253497152483" stroke-miterlimit="10"/></g><g transform="translate(-110,-326) scale(1,1)"><rect fill="#C0C0C0" stroke="none" x="1167" y="463" width="133.40771484375" height="105" opacity="0.2"/></g><g transform="translate(-110,-326) scale(1,1)"><rect fill="#ffffff" stroke="none" x="1160" y="456" width="133.40771484375" height="105"/></g><g transform="translate(-110,-326) scale(1,1)"><path fill="none" stroke="#000000" d="M 1160 456 L 1293.40771484375 456 L 1293.40771484375 561 L 1160 561 L 1160 456 Z Z" stroke-miterlimit="10"/></g><g transform="translate(-110,-326) scale(1,1)"><path fill="#ffffff" stroke="none" d="M 1267.40771484375 473 C 1267.40771484375 468.0294368 1271.43715164375 464 1276.40771484375 464 C 1281.37827804375 464 1285.40771484375 468.0294368 1285.40771484375 473 C 1285.40771484375 477.9705632 1281.37827804375 482 1276.40771484375 482 C 1271.43715164375 482 1267.40771484375 477.9705632 1267.40771484375 473 Z"/></g><g transform="translate(-110,-326) scale(1,1)"><path fill="none" stroke="#000000" d="M 1267.40771484375 473 C 1267.40771484375 468.0294368 1271.43715164375 464 1276.40771484375 464 C 1281.37827804375 464 1285.40771484375 468.0294368 1285.40771484375 473 C 1285.40771484375 477.9705632 1281.37827804375 482 1276.40771484375 482 C 1271.43715164375 482 1267.40771484375 477.9705632 1267.40771484375 473 Z" stroke-miterlimit="10"/></g><g transform="translate(-110,-326) scale(1,1)"><path fill="none" stroke="#000000" d="M 1160 494 L 1293.40771484375 494" stroke-miterlimit="10"/></g><g transform="translate(-110,-326) scale(1,1)"><g><path fill="none" stroke="none"/><text fill="#000000" stroke="none" font-family="Arial" font-size="13px" font-style="normal" font-weight="normal" text-decoration="none" x="1182.54345703125" y="473.5">«interface»</text></g></g><g transform="translate(-110,-326) scale(1,1)"><g><path fill="none" stroke="none"/><text fill="#000000" stroke="none" font-family="Arial" font-size="13px" font-style="normal" font-weight="bold" text-decoration="none" x="1190.138427734375" y="488.5">UserInfo</text></g></g><g transform="translate(-110,-326) scale(1,1)"><g><path fill="none" stroke="none"/><text fill="#000000" stroke="none" font-family="Arial" font-size="13px" font-style="normal" font-weight="normal" text-decoration="none" x="1165" y="511.5">+username: string</text></g></g><g transform="translate(-110,-326) scale(1,1)"><g><path fill="none" stroke="none"/><text fill="#000000" stroke="none" font-family="Arial" font-size="13px" font-style="normal" font-weight="normal" text-decoration="none" x="1165" y="526.5">+gamesWon: number</text></g></g><g transform="translate(-110,-326) scale(1,1)"><g><path fill="none" stroke="none"/><text fill="#000000" stroke="none" font-family="Arial" font-size="13px" font-style="normal" font-weight="normal" text-decoration="none" x="1165" y="541.5">+gamesLost: number</text></g></g><g transform="translate(-110,-326) scale(1,1)"><g><path fill="none" stroke="none"/><text fill="#000000" stroke="none" font-family="Arial" font-size="13px" font-style="normal" font-weight="normal" text-decoration="none" x="1165" y="556.5">+score: number</text></g></g><g transform="translate(-110,-326) scale(1,1)"><path fill="none" stroke="#000000" d="M 1226 640 L 1226 561" stroke-miterlimit="10"/></g><g transform="translate(-110,-326) scale(1,1)"><rect fill="#C0C0C0" stroke="none" x="575" y="919" width="424.0859375" height="130" opacity="0.2"/></g><g transform="translate(-110,-326) scale(1,1)"><rect fill="#ffffff" stroke="none" x="568" y="912" width="424.0859375" height="130"/></g><g transform="translate(-110,-326) scale(1,1)"><path fill="none" stroke="#000000" d="M 568 912 L 992.0859375 912 L 992.0859375 1042 L 568 1042 L 568 912 Z Z" stroke-miterlimit="10"/></g><g transform="translate(-110,-326) scale(1,1)"><path fill="none" stroke="#000000" d="M 568 950 L 992.0859375 950" stroke-miterlimit="10"/></g><g transform="translate(-110,-326) scale(1,1)"><path fill="none" stroke="#000000" d="M 568 960 L 992.0859375 960" stroke-miterlimit="10"/></g><g transform="translate(-110,-326) scale(1,1)"><g><path fill="none" stroke="none"/><text fill="#000000" stroke="none" font-family="Arial" font-size="13px" font-style="normal" font-weight="normal" text-decoration="none" x="750.059814453125" y="929.5">«Director»</text></g></g><g transform="translate(-110,-326) scale(1,1)"><g><path fill="none" stroke="none"/><text fill="#000000" stroke="none" font-family="Arial" font-size="13px" font-style="normal" font-weight="bold" text-decoration="none" x="716.09033203125" y="944.5">ApiConnectionService</text></g></g><g transform="translate(-110,-326) scale(1,1)"><g><path fill="none" stroke="none"/><text fill="#000000" stroke="none" font-family="Arial" font-size="13px" font-style="normal" font-weight="normal" text-decoration="none" x="573" y="977.5">+servers(): ApiConnection[*]</text></g></g><g transform="translate(-110,-326) scale(1,1)"><g><path fill="none" stroke="none"/><text fill="#000000" stroke="none" font-family="Arial" font-size="13px" font-style="normal" font-weight="normal" text-decoration="none" x="573" y="992.5">+refreshAllStatus()</text></g></g><g transform="translate(-110,-326) scale(1,1)"><g><path fill="none" stroke="none"/><text fill="#000000" stroke="none" font-family="Arial" font-size="13px" font-style="normal" font-weight="normal" text-decoration="none" x="573" y="1007.5">+refreshStatus(server: ApiConnection): boolean</text></g></g><g transform="translate(-110,-326) scale(1,1)"><g><path fill="none" stroke="none"/><text fill="#000000" stroke="none" font-family="Arial" font-size="13px" font-style="normal" font-weight="normal" text-decoration="none" x="573" y="1022.5">+persistServerUrl(server: ApiConnection)</text></g></g><g transform="translate(-110,-326) scale(1,1)"><g><path fill="none" stroke="none"/><text fill="#000000" stroke="none" font-family="Arial" font-size="13px" font-style="normal" font-weight="normal" text-decoration="none" x="573" y="1037.5">+changeServerUrl(service: ApiServerService, url: string): ApiConnection</text></g></g><g transform="translate(-110,-326) scale(1,1)"><path fill="none" stroke="#000000" d="M 792 436 L 792 912" stroke-miterlimit="10"/></g><g transform="translate(-110,-326) scale(1,1)"><path fill="#FFFFFF" stroke="none" d="M 787.790482243984 901.8373251423759 L 792 912 L 796.209517756016 901.8373251423759 L 792 890"/></g><g transform="translate(-110,-326) scale(1,1)"><path fill="none" stroke="#000000" d="M 787.790482243984 901.8373251423759 L 792 912 L 796.209517756016 901.8373251423759 L 792 890 L 787.790482243984 901.8373251423759" stroke-miterlimit="10"/></g><g transform="translate(-110,-326) scale(1,1)"><g><path fill="none" stroke="none"/><text fill="#000000" stroke="none" font-family="Arial" font-size="13px" font-style="normal" font-weight="normal" text-decoration="none" x="801.13134765625" y="459.5">-apiConnections</text></g></g><g transform="translate(-110,-326) scale(1,1)"><g><path fill="none" stroke="none"/><text fill="#000000" stroke="none" font-family="Arial" font-size="13px" font-style="normal" font-weight="normal" text-decoration="none" x="775.5" y="460.5">*</text></g></g><g transform="translate(-110,-326) scale(1,1)"><path fill="none" stroke="#000000" d="M 920 912 L 920 772" stroke-miterlimit="10"/></g><g transform="translate(-110,-326) scale(1,1)"><path fill="none" stroke="#000000" d="M 924.209517756016 782.1626748576241 L 920 772 L 915.790482243984 782.1626748576241" stroke-miterlimit="10"/></g><g transform="translate(-110,-326) scale(1,1)"><path fill="none" stroke="#000000" d="M 664 912 L 664 792" stroke-miterlimit="10"/></g><g transform="translate(-110,-326) scale(1,1)"><path fill="none" stroke="#000000" d="M 668.209517756016 802.1626748576241 L 664 792 L 659.790482243984 802.1626748576241" stroke-miterlimit="10"/></g><g transform="translate(-110,-326) scale(1,1)"><rect fill="#C0C0C0" stroke="none" x="775.5673828125" y="1119" width="564.29931640625" height="160" opacity="0.2"/></g><g transform="translate(-110,-326) scale(1,1)"><rect fill="#ffffff" stroke="none" x="768.5673828125" y="1112" width="564.29931640625" height="160"/></g><g transform="translate(-110,-326) scale(1,1)"><path fill="none" stroke="#000000" d="M 768.5673828125 1112 L 1332.86669921875 1112 L 1332.86669921875 1272 L 768.5673828125 1272 L 768.5673828125 1112 Z Z" stroke-miterlimit="10"/></g><g transform="translate(-110,-326) scale(1,1)"><path fill="none" stroke="#000000" d="M 768.5673828125 1137 L 1332.86669921875 1137" stroke-miterlimit="10"/></g><g transform="translate(-110,-326) scale(1,1)"><path fill="none" stroke="#000000" d="M 768.5673828125 1190 L 1332.86669921875 1190" stroke-miterlimit="10"/></g><g transform="translate(-110,-326) scale(1,1)"><g><path fill="none" stroke="none"/><text fill="#000000" stroke="none" font-family="Arial" font-size="13px" font-style="normal" font-weight="bold" text-decoration="none" x="1015.671630859375" y="1131.5">AuthService</text></g></g><g transform="translate(-110,-326) scale(1,1)"><g><path fill="none" stroke="none"/><text fill="#000000" stroke="none" font-family="Arial" font-size="13px" font-style="normal" font-weight="normal" text-decoration="none" x="773.5673828125" y="1154.5">+/token {readOnly}</text></g></g><g transform="translate(-110,-326) scale(1,1)"><g><path fill="none" stroke="none"/><text fill="#000000" stroke="none" font-family="Arial" font-size="13px" font-style="normal" font-weight="normal" text-decoration="none" x="773.5673828125" y="1169.5">+/username {readOnly}</text></g></g><g transform="translate(-110,-326) scale(1,1)"><g><path fill="none" stroke="none"/><text fill="#000000" stroke="none" font-family="Arial" font-size="13px" font-style="normal" font-weight="normal" text-decoration="none" x="773.5673828125" y="1184.5">+tokenChange: EventEmitter&lt;string&gt; {readOnly}</text></g></g><g transform="translate(-110,-326) scale(1,1)"><g><path fill="none" stroke="none"/><text fill="#000000" stroke="none" font-family="Arial" font-size="13px" font-style="normal" font-weight="normal" text-decoration="none" x="773.5673828125" y="1207.5">+isAuthenticated(): boolean</text></g></g><g transform="translate(-110,-326) scale(1,1)"><g><path fill="none" stroke="none"/><text fill="#000000" stroke="none" font-family="Arial" font-size="13px" font-style="normal" font-weight="normal" text-decoration="none" x="773.5673828125" y="1222.5">+login(username: string, password: string, rememberMe: boolean): { ok: boolean, error: string }</text></g></g><g transform="translate(-110,-326) scale(1,1)"><g><path fill="none" stroke="none"/><text fill="#000000" stroke="none" font-family="Arial" font-size="13px" font-style="normal" font-weight="normal" text-decoration="none" x="773.5673828125" y="1237.5">+logout()</text></g></g><g transform="translate(-110,-326) scale(1,1)"><g><path fill="none" stroke="none"/><text fill="#000000" stroke="none" font-family="Arial" font-size="13px" font-style="normal" font-weight="normal" text-decoration="none" x="773.5673828125" y="1252.5">+signup(username: string, password: string): { ok: boolean, error: string }</text></g></g><g transform="translate(-110,-326) scale(1,1)"><g><path fill="none" stroke="none"/><text fill="#000000" stroke="none" font-family="Arial" font-size="13px" font-style="normal" font-weight="normal" text-decoration="none" x="773.5673828125" y="1267.5">+userInfo(username?: string): UserInfo</text></g></g><g transform="translate(-110,-326) scale(1,1)"><path fill="none" stroke="#000000" d="M 1104 1112 L 1104 772" stroke-miterlimit="10"/></g><g transform="translate(-110,-326) scale(1,1)"><path fill="none" stroke="#000000" d="M 1108.2095177560159 782.1626748576241 L 1104 772 L 1099.7904822439841 782.1626748576241" stroke-miterlimit="10"/></g><g transform="translate(-110,-326) scale(1,1)"><g><path fill="none" stroke="none"/><text fill="#000000" stroke="none" font-family="Arial" font-size="13px" font-style="normal" font-weight="normal" text-decoration="none" x="1119.13134765625" y="803.5">-auth</text></g></g><g transform="translate(-110,-326) scale(1,1)"><g><path fill="none" stroke="none"/><text fill="#000000" stroke="none" font-family="Arial" font-size="13px" font-style="normal" font-weight="normal" text-decoration="none" x="1078.5" y="799.5">1</text></g></g><g transform="translate(-110,-326) scale(1,1)"><path fill="none" stroke="#000000" d="M 496 792 L 496 1163 L 769 1163" stroke-miterlimit="10"/></g><g transform="translate(-110,-326) scale(1,1)"><path fill="none" stroke="#000000" d="M 758.8373251423759 1167.2095177560159 L 769 1163 L 758.8373251423758 1158.7904822439841" stroke-miterlimit="10"/></g><g transform="translate(-110,-326) scale(1,1)"><g><path fill="none" stroke="none"/><text fill="#000000" stroke="none" font-family="Arial" font-size="13px" font-style="normal" font-weight="normal" text-decoration="none" x="721.13134765625" y="1188.5">-auth</text></g></g><g transform="translate(-110,-326) scale(1,1)"><g><path fill="none" stroke="none"/><text fill="#000000" stroke="none" font-family="Arial" font-size="13px" font-style="normal" font-weight="normal" text-decoration="none" x="736.5" y="1147.5">1</text></g></g><g transform="translate(-110,-326) scale(1,1)"><rect fill="#C0C0C0" stroke="none" x="311" y="1215" width="192" height="44" opacity="0.2"/></g><g transform="translate(-110,-326) scale(1,1)"><rect fill="#ffffff" stroke="none" x="304" y="1208" width="192" height="44"/></g><g transform="translate(-110,-326) scale(1,1)"><path fill="none" stroke="#000000" d="M 304 1208 L 496 1208 L 496 1252 L 304 1252 L 304 1208 Z Z" stroke-miterlimit="10"/></g><g transform="translate(-110,-326) scale(1,1)"><path fill="none" stroke="#000000" d="M 467 1213 L 491 1213 L 491 1237 L 467 1237 L 467 1213 Z Z" stroke-miterlimit="10"/></g><g transform="translate(-110,-326) scale(1,1)"><path fill="none" stroke="#000000" d="M 467 1213 L 491 1237" stroke-miterlimit="10"/></g><g transform="translate(-110,-326) scale(1,1)"><path fill="none" stroke="#000000" d="M 491 1213 L 467 1237" stroke-miterlimit="10"/></g><g transform="translate(-110,-326) scale(1,1)"><g><path fill="none" stroke="none"/><text fill="#000000" stroke="none" font-family="Arial" font-size="13px" font-style="normal" font-weight="normal" text-decoration="none" x="388" y="1225.5"></text></g></g><g transform="translate(-110,-326) scale(1,1)"><g><path fill="none" stroke="none"/><text fill="#000000" stroke="none" font-family="Arial" font-size="13px" font-style="normal" font-weight="bold" text-decoration="none" x="370.77880859375" y="1240.5">Views</text></g></g><g transform="translate(-110,-326) scale(1,1)"><path fill="none" stroke="#000000" d="M 416 1208 L 416 792" stroke-miterlimit="10"/></g><g transform="translate(-110,-326) scale(1,1)"><path fill="none" stroke="#000000" d="M 420.209517756016 802.1626748576241 L 416 792 L 411.790482243984 802.1626748576241" stroke-miterlimit="10"/></g><g transform="translate(-110,-326) scale(1,1)"><path fill="none" stroke="#000000" d="M 496 1232 L 769 1232" stroke-miterlimit="10"/></g><g transform="translate(-110,-326) scale(1,1)"><path fill="none" stroke="#000000" d="M 758.8373251423759 1236.2095177560159 L 769 1232 L 758.8373251423758 1227.7904822439841" stroke-miterlimit="10"/></g></g></svg>