<svg version="1.1" xmlns="http://www.w3.org/2000/svg" xmlns:xlink="http://www.w3.org/1999/xlink" width="524" height="2002"><defs/><g><g/><g/><g/><g/><g/><g/><g/><g/><g/><g/><g/><g/><g/><g/><g/><g/><g/><g/><g/><g/><g/><g/><g/><g/><g/><g/><g/><g/><g/><g/><g/><g/><g><rect fill="white" stroke="none" x="0" y="0" width="524" height="2002"/></g><g><text fill="black" stroke="none" font-family="sans-serif" font-size="16.5pt" font-style="normal" font-weight="normal" text-decoration="normal" x="150.13997953529946" y="24.50280495" text-anchor="start" dominant-baseline="alphabetic">Game play (Battleship)</text></g><g/><g><path fill="none" stroke="black" paint-order="fill stroke markers" d=" M 73.50841485 128.80307802049998 L 73.50841485 1796.3823069009998" stroke-miterlimit="10" stroke-width="1.3612669416666667" stroke-dasharray="12.565541,5.445067766666667"/><path fill="none" stroke="black" paint-order="fill stroke markers" d=" M 287.98012134996094 128.80307802049998 L 287.98012134996094 2002.2058684809995" stroke-miterlimit="10" stroke-width="1.3612669416666667" stroke-dasharray="12.565541,5.445067766666667"/><path fill="none" stroke="black" paint-order="fill stroke markers" d=" M 450.5313098455989 376.853140131 L 450.5313098455989 1796.3823069009998" stroke-miterlimit="10" stroke-width="1.3612669416666667" stroke-dasharray="12.565541,5.445067766666667"/></g><g><g><path fill="white" stroke="black" paint-order="fill stroke markers" d=" M 82.819480731 59.70516806150002 A 9.311065881 9.311065881 0 1 1 82.81947607546743 59.69585699717086 M 73.50841485 69.01623394250002 L 73.50841485 88.94518196850002 M 61.747068473999995 76.20372339450002 L 85.26976122599999 76.20372339450002 M 73.50841485 88.94518196850002 L 61.747068473999995 107.56731373050002 M 73.50841485 88.94518196850002 L 85.26976122599999 107.56731373050002" stroke-miterlimit="10" stroke-width="2.7769845610000004" stroke-dasharray=""/></g><g><g/><text fill="black" stroke="none" font-family="sans-serif" font-size="11pt" font-style="normal" font-weight="normal" text-decoration="normal" x="32.77112542128906" y="123.90251703050001" text-anchor="start" dominant-baseline="alphabetic">Game Client</text></g><path fill="none" stroke="none"/><g><path fill="white" stroke="black" paint-order="fill stroke markers" d=" M 226.67018309367967 84.69802911050002 L 349.29005960624215 84.69802911050002 L 349.29005960624215 128.8030780205 L 226.67018309367967 128.8030780205 L 226.67018309367967 84.69802911050002 Z" stroke-miterlimit="10" stroke-width="2.613632528" stroke-dasharray=""/></g><g><g/><text fill="black" stroke="none" font-family="sans-serif" font-size="11pt" font-style="normal" font-weight="normal" text-decoration="normal" x="244.3938786741797" y="112.46787472049999" text-anchor="start" dominant-baseline="alphabetic">Game Server</text></g></g><g><g><g><rect fill="white" stroke="none" x="153.02914843261718" y="205.57853353049998" width="55.430239334726565" height="21.23576429"/></g><text fill="black" stroke="none" font-family="sans-serif" font-size="11pt" font-style="normal" font-weight="normal" text-decoration="normal" x="155.47942892761716" y="220.28021650049996" text-anchor="start" dominant-baseline="alphabetic">/api/join</text></g><g><path fill="none" stroke="black" paint-order="fill stroke markers" d=" M 73.50841485 226.81429782049997 L 285.2575874666276 226.81429782049997" stroke-miterlimit="10" stroke-width="1.3612669416666667" stroke-dasharray=""/><g transform="translate(287.98012134996094,226.81429782049997) translate(-287.98012134996094,-226.81429782049997)"><path fill="black" stroke="none" paint-order="stroke fill markers" d=" M 274.36745193329426 220.00796311216664 L 287.98012134996094 226.81429782049997 L 274.36745193329426 233.6206325288333 Z"/></g></g><g><g><rect fill="white" stroke="none" x="178.29398760498046" y="251.3171027705" width="4.90056099" height="21.23576429"/></g><text fill="black" stroke="none" font-family="sans-serif" font-size="11pt" font-style="normal" font-weight="normal" text-decoration="normal" x="180.74426809998045" y="266.0187857405" text-anchor="start" dominant-baseline="alphabetic"></text></g><g><path fill="none" stroke="black" paint-order="fill stroke markers" d=" M 287.98012134996094 272.5528670605 L 76.23094873333332 272.5528670605" stroke-miterlimit="10" stroke-width="1.3612669416666667" stroke-dasharray="6.53408132"/><g transform="translate(73.50841485,272.5528670605) translate(-73.50841485,-272.5528670605)"><path fill="black" stroke="none" paint-order="stroke fill markers" d=" M 87.12108426666666 265.74653235216664 L 73.50841485 272.5528670605 L 87.12108426666666 279.3592017688333 Z"/></g></g><g><path fill="white" stroke="black" paint-order="fill stroke markers" d=" M 459.8423757265989 307.7552301719999 A 9.311065881 9.311065881 0 1 1 459.84237107106634 307.7459191076708 M 450.5313098455989 317.0662960529999 L 450.5313098455989 336.9952440789999 M 438.7699634695989 324.25378550499994 L 462.2926562215989 324.25378550499994 M 450.5313098455989 336.9952440789999 L 438.7699634695989 355.61737584099996 M 450.5313098455989 336.9952440789999 L 462.2926562215989 355.61737584099996" stroke-miterlimit="10" stroke-width="2.7769845610000004" stroke-dasharray=""/></g><g><g/><text fill="black" stroke="none" font-family="sans-serif" font-size="11pt" font-style="normal" font-weight="normal" text-decoration="normal" x="403.6809222723567" y="371.952579141" text-anchor="start" dominant-baseline="alphabetic">Game Client 2</text></g><g><g><rect fill="white" stroke="none" x="341.54059593041666" y="401.35594508099996" width="55.430239334726565" height="21.23576429"/></g><text fill="black" stroke="none" font-family="sans-serif" font-size="11pt" font-style="normal" font-weight="normal" text-decoration="normal" x="343.9908764254167" y="416.05762805099994" text-anchor="start" dominant-baseline="alphabetic">/api/join</text></g><g><path fill="none" stroke="black" paint-order="fill stroke markers" d=" M 450.5313098455989 422.591709371 L 290.70265523329425 422.591709371" stroke-miterlimit="10" stroke-width="1.3612669416666667" stroke-dasharray=""/><g transform="translate(287.98012134996094,422.591709371) translate(-287.98012134996094,-422.591709371)"><path fill="black" stroke="none" paint-order="stroke fill markers" d=" M 301.5927907666276 415.78537466266664 L 287.98012134996094 422.591709371 L 301.5927907666276 429.3980440793333 Z"/></g></g><g><g><rect fill="white" stroke="none" x="142.43502459228515" y="447.09451432099996" width="76.61848701539063" height="21.23576429"/></g><text fill="black" stroke="none" font-family="sans-serif" font-size="11pt" font-style="normal" font-weight="normal" text-decoration="normal" x="144.88530508728513" y="461.79619729099994" text-anchor="start" dominant-baseline="alphabetic">userJoined</text></g><g><path fill="none" stroke="black" paint-order="fill stroke markers" d=" M 287.98012134996094 468.330278611 L 76.23094873333332 468.330278611" stroke-miterlimit="10" stroke-width="1.3612669416666667" stroke-dasharray=""/><g transform="translate(73.50841485,468.330278611) translate(-73.50841485,-468.330278611)"><path fill="none" stroke="black" paint-order="fill stroke markers" d=" M 87.12108426666667 461.52394390266664 L 74.86968179166666 468.330278611 L 87.12108426666667 475.1366133193333" stroke-miterlimit="10" stroke-width="1.3612669416666667"/></g></g><g><g><rect fill="white" stroke="none" x="366.80543510277994" y="492.83308356099997" width="4.90056099" height="21.23576429"/></g><text fill="black" stroke="none" font-family="sans-serif" font-size="11pt" font-style="normal" font-weight="normal" text-decoration="normal" x="369.25571559777995" y="507.53476653099995" text-anchor="start" dominant-baseline="alphabetic"></text></g><g><path fill="none" stroke="black" paint-order="fill stroke markers" d=" M 287.98012134996094 514.068847851 L 447.8087759622656 514.068847851" stroke-miterlimit="10" stroke-width="1.3612669416666667" stroke-dasharray="6.53408132"/><g transform="translate(450.5313098455989,514.068847851) translate(-450.5313098455989,-514.068847851)"><path fill="black" stroke="none" paint-order="stroke fill markers" d=" M 436.91864042893224 507.26251314266665 L 450.5313098455989 514.068847851 L 436.91864042893224 520.8751825593333 Z"/></g></g><g><g><rect fill="white" stroke="none" x="123.70560869873044" y="579.409661051" width="114.0773188025" height="21.23576429"/></g><text fill="black" stroke="none" font-family="sans-serif" font-size="11pt" font-style="normal" font-weight="normal" text-decoration="normal" x="126.15588919373045" y="594.1113440209999" text-anchor="start" dominant-baseline="alphabetic">gameStart(state)</text></g><g><path fill="none" stroke="black" paint-order="fill stroke markers" d=" M 287.98012134996094 600.645425341 L 76.23094873333332 600.645425341" stroke-miterlimit="10" stroke-width="1.3612669416666667" stroke-dasharray=""/><g transform="translate(73.50841485,600.645425341) translate(-73.50841485,-600.645425341)"><path fill="none" stroke="black" paint-order="fill stroke markers" d=" M 87.12108426666667 593.8390906326666 L 74.86968179166666 600.645425341 L 87.12108426666667 607.4517600493333" stroke-miterlimit="10" stroke-width="1.3612669416666667"/></g></g><g><g><rect fill="white" stroke="none" x="312.21705619652994" y="625.1482302909999" width="114.0773188025" height="21.23576429"/></g><text fill="black" stroke="none" font-family="sans-serif" font-size="11pt" font-style="normal" font-weight="normal" text-decoration="normal" x="314.66733669152995" y="639.8499132609999" text-anchor="start" dominant-baseline="alphabetic">gameStart(state)</text></g><g><path fill="none" stroke="black" paint-order="fill stroke markers" d=" M 287.98012134996094 646.3839945809999 L 447.8087759622656 646.3839945809999" stroke-miterlimit="10" stroke-width="1.3612669416666667" stroke-dasharray=""/><g transform="translate(450.5313098455989,646.3839945809999) translate(-450.5313098455989,-646.3839945809999)"><path fill="none" stroke="black" paint-order="fill stroke markers" d=" M 436.91864042893224 639.5776598726666 L 449.17004290393226 646.3839945809999 L 436.91864042893224 653.1903292893332" stroke-miterlimit="10" stroke-width="1.3612669416666667"/></g></g><g><g><rect fill="white" stroke="none" x="131.02486071289061" y="739.494653391" width="99.43881477417969" height="21.23576429"/></g><g><rect fill="white" stroke="none" x="131.02486071289061" y="755.829856691" width="76.62565864625" height="21.23576429"/></g><text fill="black" stroke="none" font-family="sans-serif" font-size="11pt" font-style="normal" font-weight="normal" text-decoration="normal" x="133.4751412078906" y="754.196336361" text-anchor="start" dominant-baseline="alphabetic">/api/play/setup</text><text fill="black" stroke="none" font-family="sans-serif" font-size="11pt" font-style="normal" font-weight="normal" text-decoration="normal" x="133.4751412078906" y="770.531539661" text-anchor="start" dominant-baseline="alphabetic">boardState</text></g><g><path fill="none" stroke="black" paint-order="fill stroke markers" d=" M 73.50841485 777.065620981 L 285.2575874666276 777.065620981" stroke-miterlimit="10" stroke-width="1.3612669416666667" stroke-dasharray=""/><g transform="translate(287.98012134996094,777.065620981) translate(-287.98012134996094,-777.065620981)"><path fill="black" stroke="none" paint-order="stroke fill markers" d=" M 274.36745193329426 770.2592862726667 L 287.98012134996094 777.065620981 L 274.36745193329426 783.8719556893334 Z"/></g></g><g><g><rect fill="white" stroke="none" x="178.29398760498046" y="801.568425931" width="4.90056099" height="21.23576429"/></g><text fill="black" stroke="none" font-family="sans-serif" font-size="11pt" font-style="normal" font-weight="normal" text-decoration="normal" x="180.74426809998045" y="816.270108901" text-anchor="start" dominant-baseline="alphabetic"></text></g><g><path fill="none" stroke="black" paint-order="fill stroke markers" d=" M 287.98012134996094 822.804190221 L 76.23094873333332 822.804190221" stroke-miterlimit="10" stroke-width="1.3612669416666667" stroke-dasharray="6.53408132"/><g transform="translate(73.50841485,822.804190221) translate(-73.50841485,-822.804190221)"><path fill="black" stroke="none" paint-order="stroke fill markers" d=" M 87.12108426666666 815.9978555126667 L 73.50841485 822.804190221 L 87.12108426666666 829.6105249293333 Z"/></g></g><g><g><rect fill="white" stroke="none" x="319.5363082106901" y="847.306995171" width="99.43881477417969" height="21.23576429"/></g><g><rect fill="white" stroke="none" x="319.5363082106901" y="863.642198471" width="76.62565864625" height="21.23576429"/></g><text fill="black" stroke="none" font-family="sans-serif" font-size="11pt" font-style="normal" font-weight="normal" text-decoration="normal" x="321.9865887056901" y="862.008678141" text-anchor="start" dominant-baseline="alphabetic">/api/play/setup</text><text fill="black" stroke="none" font-family="sans-serif" font-size="11pt" font-style="normal" font-weight="normal" text-decoration="normal" x="321.9865887056901" y="878.343881441" text-anchor="start" dominant-baseline="alphabetic">boardState</text></g><g><path fill="none" stroke="black" paint-order="fill stroke markers" d=" M 450.5313098455989 884.877962761 L 290.70265523329425 884.877962761" stroke-miterlimit="10" stroke-width="1.3612669416666667" stroke-dasharray=""/><g transform="translate(287.98012134996094,884.877962761) translate(-287.98012134996094,-884.877962761)"><path fill="black" stroke="none" paint-order="stroke fill markers" d=" M 301.5927907666276 878.0716280526667 L 287.98012134996094 884.877962761 L 301.5927907666276 891.6842974693334 Z"/></g></g><g><g><rect fill="white" stroke="none" x="366.80543510277994" y="909.380767711" width="4.90056099" height="21.23576429"/></g><text fill="black" stroke="none" font-family="sans-serif" font-size="11pt" font-style="normal" font-weight="normal" text-decoration="normal" x="369.25571559777995" y="924.082450681" text-anchor="start" dominant-baseline="alphabetic"></text></g><g><path fill="none" stroke="black" paint-order="fill stroke markers" d=" M 287.98012134996094 930.616532001 L 447.8087759622656 930.616532001" stroke-miterlimit="10" stroke-width="1.3612669416666667" stroke-dasharray="6.53408132"/><g transform="translate(450.5313098455989,930.616532001) translate(-450.5313098455989,-930.616532001)"><path fill="black" stroke="none" paint-order="stroke fill markers" d=" M 436.91864042893224 923.8101972926667 L 450.5313098455989 930.616532001 L 436.91864042893224 937.4228667093333 Z"/></g></g><g><g><rect fill="white" stroke="none" x="124.11005053222654" y="955.1193369509999" width="113.26843513550781" height="21.23576429"/></g><text fill="black" stroke="none" font-family="sans-serif" font-size="11pt" font-style="normal" font-weight="normal" text-decoration="normal" x="126.56033102722654" y="969.8210199209999" text-anchor="start" dominant-baseline="alphabetic">battleStart(state)</text></g><g><path fill="none" stroke="black" paint-order="fill stroke markers" d=" M 287.98012134996094 976.3551012409999 L 76.23094873333332 976.3551012409999" stroke-miterlimit="10" stroke-width="1.3612669416666667" stroke-dasharray=""/><g transform="translate(73.50841485,976.3551012409999) translate(-73.50841485,-976.3551012409999)"><path fill="none" stroke="black" paint-order="fill stroke markers" d=" M 87.12108426666667 969.5487665326666 L 74.86968179166666 976.3551012409999 L 87.12108426666667 983.1614359493333" stroke-miterlimit="10" stroke-width="1.3612669416666667"/></g></g><g><g><rect fill="white" stroke="none" x="312.62149803002603" y="1000.8579061909999" width="113.26843513550781" height="21.23576429"/></g><text fill="black" stroke="none" font-family="sans-serif" font-size="11pt" font-style="normal" font-weight="normal" text-decoration="normal" x="315.07177852502605" y="1015.5595891609998" text-anchor="start" dominant-baseline="alphabetic">battleStart(state)</text></g><g><path fill="none" stroke="black" paint-order="fill stroke markers" d=" M 287.98012134996094 1022.0936704809999 L 447.8087759622656 1022.0936704809999" stroke-miterlimit="10" stroke-width="1.3612669416666667" stroke-dasharray=""/><g transform="translate(450.5313098455989,1022.0936704809999) translate(-450.5313098455989,-1022.0936704809999)"><path fill="none" stroke="black" paint-order="fill stroke markers" d=" M 436.91864042893224 1015.2873357726666 L 449.17004290393226 1022.0936704809999 L 436.91864042893224 1028.9000051893331" stroke-miterlimit="10" stroke-width="1.3612669416666667"/></g></g><g><g><rect fill="white" stroke="none" x="129.399952265625" y="1115.2043292909998" width="102.68863166871094" height="21.23576429"/></g><g><rect fill="white" stroke="none" x="129.399952265625" y="1131.539532591" width="27.706560745859374" height="21.23576429"/></g><text fill="black" stroke="none" font-family="sans-serif" font-size="11pt" font-style="normal" font-weight="normal" text-decoration="normal" x="131.85023276062498" y="1129.906012261" text-anchor="start" dominant-baseline="alphabetic">/api/play/attack</text><text fill="black" stroke="none" font-family="sans-serif" font-size="11pt" font-style="normal" font-weight="normal" text-decoration="normal" x="131.85023276062498" y="1146.241215561" text-anchor="start" dominant-baseline="alphabetic">x, y</text></g><g><path fill="none" stroke="black" paint-order="fill stroke markers" d=" M 73.50841485 1152.7752968809998 L 285.2575874666276 1152.7752968809998" stroke-miterlimit="10" stroke-width="1.3612669416666667" stroke-dasharray=""/><g transform="translate(287.98012134996094,1152.7752968809998) translate(-287.98012134996094,-1152.7752968809998)"><path fill="black" stroke="none" paint-order="stroke fill markers" d=" M 274.36745193329426 1145.9689621726666 L 287.98012134996094 1152.7752968809998 L 274.36745193329426 1159.581631589333 Z"/></g></g><g><g><rect fill="white" stroke="none" x="142.43143877685546" y="1177.278101831" width="76.62565864625" height="21.23576429"/></g><text fill="black" stroke="none" font-family="sans-serif" font-size="11pt" font-style="normal" font-weight="normal" text-decoration="normal" x="144.88171927185545" y="1191.979784801" text-anchor="start" dominant-baseline="alphabetic">boardState</text></g><g><path fill="none" stroke="black" paint-order="fill stroke markers" d=" M 287.98012134996094 1198.5138661209999 L 76.23094873333332 1198.5138661209999" stroke-miterlimit="10" stroke-width="1.3612669416666667" stroke-dasharray=""/><g transform="translate(73.50841485,1198.5138661209999) translate(-73.50841485,-1198.5138661209999)"><path fill="black" stroke="none" paint-order="stroke fill markers" d=" M 87.12108426666666 1191.7075314126666 L 73.50841485 1198.5138661209999 L 87.12108426666666 1205.320200829333 Z"/></g></g><g><g><rect fill="white" stroke="none" x="307.3101119216276" y="1223.016671071" width="123.89120735230469" height="21.23576429"/></g><text fill="black" stroke="none" font-family="sans-serif" font-size="11pt" font-style="normal" font-weight="normal" text-decoration="normal" x="309.7603924166276" y="1237.718354041" text-anchor="start" dominant-baseline="alphabetic">action, boardState</text></g><g><path fill="none" stroke="black" paint-order="fill stroke markers" d=" M 287.98012134996094 1244.252435361 L 447.8087759622656 1244.252435361" stroke-miterlimit="10" stroke-width="1.3612669416666667" stroke-dasharray=""/><g transform="translate(450.5313098455989,1244.252435361) translate(-450.5313098455989,-1244.252435361)"><path fill="none" stroke="black" paint-order="fill stroke markers" d=" M 436.91864042893224 1237.4461006526667 L 449.17004290393226 1244.252435361 L 436.91864042893224 1251.0587700693331" stroke-miterlimit="10" stroke-width="1.3612669416666667"/></g></g><g><g><rect fill="white" stroke="none" x="317.91139976342447" y="1309.5932485609999" width="102.68863166871094" height="21.23576429"/></g><g><rect fill="white" stroke="none" x="317.91139976342447" y="1325.928451861" width="27.706560745859374" height="21.23576429"/></g><text fill="black" stroke="none" font-family="sans-serif" font-size="11pt" font-style="normal" font-weight="normal" text-decoration="normal" x="320.3616802584245" y="1324.294931531" text-anchor="start" dominant-baseline="alphabetic">/api/play/attack</text><text fill="black" stroke="none" font-family="sans-serif" font-size="11pt" font-style="normal" font-weight="normal" text-decoration="normal" x="320.3616802584245" y="1340.630134831" text-anchor="start" dominant-baseline="alphabetic">x, y</text></g><g><path fill="none" stroke="black" paint-order="fill stroke markers" d=" M 450.5313098455989 1347.164216151 L 290.70265523329425 1347.164216151" stroke-miterlimit="10" stroke-width="1.3612669416666667" stroke-dasharray=""/><g transform="translate(287.98012134996094,1347.164216151) translate(-287.98012134996094,-1347.164216151)"><path fill="black" stroke="none" paint-order="stroke fill markers" d=" M 301.5927907666276 1340.3578814426667 L 287.98012134996094 1347.164216151 L 301.5927907666276 1353.9705508593331 Z"/></g></g><g><g><rect fill="white" stroke="none" x="330.94288627465494" y="1371.667021101" width="76.62565864625" height="21.23576429"/></g><text fill="black" stroke="none" font-family="sans-serif" font-size="11pt" font-style="normal" font-weight="normal" text-decoration="normal" x="333.39316676965495" y="1386.3687040710001" text-anchor="start" dominant-baseline="alphabetic">boardState</text></g><g><path fill="none" stroke="black" paint-order="fill stroke markers" d=" M 287.98012134996094 1392.902785391 L 447.8087759622656 1392.902785391" stroke-miterlimit="10" stroke-width="1.3612669416666667" stroke-dasharray=""/><g transform="translate(450.5313098455989,1392.902785391) translate(-450.5313098455989,-1392.902785391)"><path fill="black" stroke="none" paint-order="stroke fill markers" d=" M 436.91864042893224 1386.0964506826667 L 450.5313098455989 1392.902785391 L 436.91864042893224 1399.7091200993332 Z"/></g></g><g><g><rect fill="white" stroke="none" x="118.7986644238281" y="1417.405590341" width="123.89120735230469" height="21.23576429"/></g><text fill="black" stroke="none" font-family="sans-serif" font-size="11pt" font-style="normal" font-weight="normal" text-decoration="normal" x="121.2489449188281" y="1432.1072733110002" text-anchor="start" dominant-baseline="alphabetic">action, boardState</text></g><g><path fill="none" stroke="black" paint-order="fill stroke markers" d=" M 287.98012134996094 1438.641354631 L 76.23094873333332 1438.641354631" stroke-miterlimit="10" stroke-width="1.3612669416666667" stroke-dasharray=""/><g transform="translate(73.50841485,1438.641354631) translate(-73.50841485,-1438.641354631)"><path fill="none" stroke="black" paint-order="fill stroke markers" d=" M 87.12108426666667 1431.8350199226668 L 74.86968179166666 1438.641354631 L 87.12108426666667 1445.4476893393332" stroke-miterlimit="10" stroke-width="1.3612669416666667"/></g></g><path fill="none" stroke="black" paint-order="fill stroke markers" d=" M 8.16760165 1476.4845756093334 L 515.83239835 1476.4845756093334 M 8.16760165 1481.929643376 L 515.83239835 1481.929643376 M 8.16760165 1487.3747111426667 L 515.83239835 1487.3747111426667" stroke-miterlimit="10" stroke-width="1.3612669416666667" stroke-dasharray=""/><path fill="white" stroke="black" paint-order="fill stroke markers" d=" M 233.0211954215039 1463.144159581 L 290.97880457849607 1463.144159581 L 290.97880457849607 1500.715127171 L 233.0211954215039 1500.715127171 Z" stroke-miterlimit="10" stroke-width="1.3612669416666667" stroke-dasharray=""/><g><text fill="black" stroke="none" font-family="sans-serif" font-size="11pt" font-style="normal" font-weight="normal" text-decoration="normal" x="255.8904800415039" y="1486.013444201" text-anchor="start" dominant-baseline="alphabetic">...</text></g><g><g><rect fill="white" stroke="none" x="129.399952265625" y="1525.2179321209999" width="102.68863166871094" height="21.23576429"/></g><g><rect fill="white" stroke="none" x="129.399952265625" y="1541.553135421" width="27.706560745859374" height="21.23576429"/></g><text fill="black" stroke="none" font-family="sans-serif" font-size="11pt" font-style="normal" font-weight="normal" text-decoration="normal" x="131.85023276062498" y="1539.919615091" text-anchor="start" dominant-baseline="alphabetic">/api/play/attack</text><text fill="black" stroke="none" font-family="sans-serif" font-size="11pt" font-style="normal" font-weight="normal" text-decoration="normal" x="131.85023276062498" y="1556.254818391" text-anchor="start" dominant-baseline="alphabetic">x, y</text></g><g><path fill="none" stroke="black" paint-order="fill stroke markers" d=" M 73.50841485 1562.7888997109999 L 285.2575874666276 1562.7888997109999" stroke-miterlimit="10" stroke-width="1.3612669416666667" stroke-dasharray=""/><g transform="translate(287.98012134996094,1562.7888997109999) translate(-287.98012134996094,-1562.7888997109999)"><path fill="black" stroke="none" paint-order="stroke fill markers" d=" M 274.36745193329426 1555.9825650026667 L 287.98012134996094 1562.7888997109999 L 274.36745193329426 1569.595234419333 Z"/></g></g><g><g><rect fill="white" stroke="none" x="138.7807658642578" y="1587.2917046609998" width="76.62565864625" height="21.23576429"/></g><g><rect fill="white" stroke="none" x="138.7807658642578" y="1603.626907961" width="83.92700447144531" height="21.23576429"/></g><text fill="black" stroke="none" font-family="sans-serif" font-size="11pt" font-style="normal" font-weight="normal" text-decoration="normal" x="141.2310463592578" y="1601.993387631" text-anchor="start" dominant-baseline="alphabetic">boardState</text><text fill="black" stroke="none" font-family="sans-serif" font-size="11pt" font-style="normal" font-weight="normal" text-decoration="normal" x="141.2310463592578" y="1618.328590931" text-anchor="start" dominant-baseline="alphabetic">(game over)</text></g><g><path fill="none" stroke="black" paint-order="fill stroke markers" d=" M 287.98012134996094 1624.8626722509998 L 76.23094873333332 1624.8626722509998" stroke-miterlimit="10" stroke-width="1.3612669416666667" stroke-dasharray=""/><g transform="translate(73.50841485,1624.8626722509998) translate(-73.50841485,-1624.8626722509998)"><path fill="black" stroke="none" paint-order="stroke fill markers" d=" M 87.12108426666666 1618.0563375426666 L 73.50841485 1624.8626722509998 L 87.12108426666666 1631.669006959333 Z"/></g></g><g><g><rect fill="white" stroke="none" x="307.3101119216276" y="1649.3654772009997" width="123.89120735230469" height="21.23576429"/></g><g><rect fill="white" stroke="none" x="307.3101119216276" y="1665.7006805009999" width="83.92700447144531" height="21.23576429"/></g><text fill="black" stroke="none" font-family="sans-serif" font-size="11pt" font-style="normal" font-weight="normal" text-decoration="normal" x="309.7603924166276" y="1664.0671601709998" text-anchor="start" dominant-baseline="alphabetic">action, boardState</text><text fill="black" stroke="none" font-family="sans-serif" font-size="11pt" font-style="normal" font-weight="normal" text-decoration="normal" x="309.7603924166276" y="1680.402363471" text-anchor="start" dominant-baseline="alphabetic">(game over)</text></g><g><path fill="none" stroke="black" paint-order="fill stroke markers" d=" M 287.98012134996094 1686.9364447909998 L 447.8087759622656 1686.9364447909998" stroke-miterlimit="10" stroke-width="1.3612669416666667" stroke-dasharray=""/><g transform="translate(450.5313098455989,1686.9364447909998) translate(-450.5313098455989,-1686.9364447909998)"><path fill="none" stroke="black" paint-order="fill stroke markers" d=" M 436.91864042893224 1680.1301100826665 L 449.17004290393226 1686.9364447909998 L 436.91864042893224 1693.742779499333" stroke-miterlimit="10" stroke-width="1.3612669416666667"/></g></g><g><path fill="none" stroke="black" paint-order="fill stroke markers" d=" M 58.806731879999994 1781.6806239309997 L 88.21009781999999 1811.0839898709999 M 88.21009781999999 1781.6806239309997 L 58.806731879999994 1811.0839898709999" stroke-miterlimit="10" stroke-width="2.613632528" stroke-dasharray=""/></g><g><path fill="none" stroke="black" paint-order="fill stroke markers" d=" M 435.82962687559893 1781.6806239309997 L 465.2329928155989 1811.0839898709999 M 465.2329928155989 1781.6806239309997 L 435.82962687559893 1811.0839898709999" stroke-miterlimit="10" stroke-width="2.613632528" stroke-dasharray=""/></g><g><g><rect fill="white" stroke="none" x="307.3101119216276" y="1820.8851118509997" width="47.25557197632813" height="21.23576429"/></g><text fill="black" stroke="none" font-family="sans-serif" font-size="11pt" font-style="normal" font-weight="normal" text-decoration="normal" x="309.7603924166276" y="1835.5867948209998" text-anchor="start" dominant-baseline="alphabetic">reset()</text></g><g><path fill="none" stroke="black" paint-order="fill stroke markers" d=" M 287.98012134996094 1842.1208761409996 L 353.32093454996095 1842.1208761409996 L 353.32093454996095 1858.4560794409997 L 290.70265523329425 1858.4560794409997" stroke-miterlimit="10" stroke-width="1.3612669416666667" stroke-dasharray=""/><g transform="translate(287.98012134996094,1858.4560794409997) translate(-287.98012134996094,-1858.4560794409997)"><path fill="black" stroke="none" paint-order="stroke fill markers" d=" M 301.5927907666276 1851.6497447326665 L 287.98012134996094 1858.4560794409997 L 301.5927907666276 1865.262414149333 Z"/></g></g><path fill="white" stroke="black" paint-order="fill stroke markers" d=" M 287.98012134996094 1901.7443681859997 L 279.81251969996094 1901.7443681859997 M 81.6760165 1882.9588843909996 L 265.11083672996097 1882.9588843909996 L 279.81251969996094 1897.6605673609997 L 279.81251969996094 1920.5298519809996 L 81.6760165 1920.5298519809996 L 81.6760165 1882.9588843909996 M 265.11083672996097 1882.9588843909996 L 265.11083672996097 1897.6605673609997 L 279.81251969996094 1897.6605673609997" stroke-miterlimit="10" stroke-width="1.3612669416666667" stroke-dasharray=""/><g><text fill="black" stroke="none" font-family="sans-serif" font-size="11pt" font-style="normal" font-weight="normal" text-decoration="normal" x="104.54530112" y="1905.8281690109998" text-anchor="start" dominant-baseline="alphabetic">Back to Standby Phase</text></g><g><g/><path fill="none" stroke="black" paint-order="fill stroke markers" d=" M 16.335203299999996 161.47348462049996 L 507.70452139559893 161.47348462049996 L 507.70452139559893 670.886799531 L 16.335203299999996 670.886799531 L 16.335203299999996 161.47348462049996 Z" stroke-miterlimit="10" stroke-width="2.3336004714285714" stroke-dasharray=""/><path fill="white" stroke="black" paint-order="fill stroke markers" d=" M 16.335203299999996 161.47348462049996 L 16.335203299999996 181.07572858049997 L 133.09726944589843 181.07572858049997 L 142.89839142589844 171.27460660049996 L 142.89839142589844 161.47348462049996 L 16.335203299999996 161.47348462049996" stroke-miterlimit="10" stroke-width="2.3336004714285714" stroke-dasharray=""/><text fill="black" stroke="none" font-family="sans-serif" font-size="8.8pt" font-style="normal" font-weight="bold" text-decoration="normal" x="32.67040659999999" y="174.54164726049996" text-anchor="start" dominant-baseline="alphabetic">Standby Phase</text></g><g><g/><path fill="none" stroke="black" paint-order="fill stroke markers" d=" M 16.335203299999996 695.389604481 L 507.70452139559893 695.389604481 L 507.70452139559893 1046.5964754309998 L 16.335203299999996 1046.5964754309998 L 16.335203299999996 695.389604481 Z" stroke-miterlimit="10" stroke-width="2.3336004714285714" stroke-dasharray=""/><path fill="white" stroke="black" paint-order="fill stroke markers" d=" M 16.335203299999996 695.389604481 L 16.335203299999996 714.991848441 L 113.54346695566406 714.991848441 L 123.34458893566406 705.1907264609999 L 123.34458893566406 695.389604481 L 16.335203299999996 695.389604481" stroke-miterlimit="10" stroke-width="2.3336004714285714" stroke-dasharray=""/><text fill="black" stroke="none" font-family="sans-serif" font-size="8.8pt" font-style="normal" font-weight="bold" text-decoration="normal" x="32.67040659999999" y="708.457767121" text-anchor="start" dominant-baseline="alphabetic">Main Phase</text></g><g><g/><path fill="none" stroke="black" paint-order="fill stroke markers" d=" M 16.335203299999996 1071.099280381 L 507.70452139559893 1071.099280381 L 507.70452139559893 1711.4392497409997 L 16.335203299999996 1711.4392497409997 L 16.335203299999996 1071.099280381 Z" stroke-miterlimit="10" stroke-width="2.3336004714285714" stroke-dasharray=""/><path fill="white" stroke="black" paint-order="fill stroke markers" d=" M 16.335203299999996 1071.099280381 L 16.335203299999996 1090.7015243409999 L 119.4141792359375 1090.7015243409999 L 129.2153012159375 1080.900402361 L 129.2153012159375 1071.099280381 L 16.335203299999996 1071.099280381" stroke-miterlimit="10" stroke-width="2.3336004714285714" stroke-dasharray=""/><text fill="black" stroke="none" font-family="sans-serif" font-size="8.8pt" font-style="normal" font-weight="bold" text-decoration="normal" x="32.67040659999999" y="1084.1674430209998" text-anchor="start" dominant-baseline="alphabetic">Battle Phase</text></g><g><g/><path fill="none" stroke="black" paint-order="fill stroke markers" d=" M 16.335203299999996 1735.9420546909998 L 507.70452139559893 1735.9420546909998 L 507.70452139559893 1945.0326569309996 L 16.335203299999996 1945.0326569309996 L 16.335203299999996 1735.9420546909998 Z" stroke-miterlimit="10" stroke-width="2.3336004714285714" stroke-dasharray=""/><path fill="white" stroke="black" paint-order="fill stroke markers" d=" M 16.335203299999996 1735.9420546909998 L 16.335203299999996 1755.5442986509997 L 108.97861710214843 1755.5442986509997 L 118.77973908214844 1745.743176671 L 118.77973908214844 1735.9420546909998 L 16.335203299999996 1735.9420546909998" stroke-miterlimit="10" stroke-width="2.3336004714285714" stroke-dasharray=""/><text fill="black" stroke="none" font-family="sans-serif" font-size="8.8pt" font-style="normal" font-weight="bold" text-decoration="normal" x="32.67040659999999" y="1749.0102173309997" text-anchor="start" dominant-baseline="alphabetic">End Phase</text></g></g><g/><g/></g></svg>