<svg version="1.1" xmlns="http://www.w3.org/2000/svg" xmlns:xlink="http://www.w3.org/1999/xlink" width="970" height="1973"><defs/><g><g/><g/><g/><g/><g/><g/><g/><g/><g/><g/><g/><g/><g/><g/><g/><g/><g/><g/><g/><g/><g/><g/><g/><g/><g/><g/><g/><g/><g/><g/><g/><g/><g/><g><rect fill="white" stroke="none" x="0" y="0" width="970" height="1973"/></g><g><text fill="black" stroke="none" font-family="sans-serif" font-size="16.5pt" font-style="normal" font-weight="normal" text-decoration="normal" x="432.7737416203425" y="24.50280495" text-anchor="start" dominant-baseline="alphabetic">Server join</text></g><g/><g><path fill="none" stroke="black" paint-order="fill stroke markers" d=" M 23.64361483359375 128.80307802049998 L 23.64361483359375 1973.4559106730005" stroke-miterlimit="10" stroke-width="1.3612669416666667" stroke-dasharray="12.565541,5.445067766666667"/><path fill="none" stroke="black" paint-order="fill stroke markers" d=" M 162.54413804602865 128.80307802049998 L 162.54413804602865 1973.4559106730005" stroke-miterlimit="10" stroke-width="1.3612669416666667" stroke-dasharray="12.565541,5.445067766666667"/><path fill="none" stroke="black" paint-order="fill stroke markers" d=" M 288.74688326386456 1493.2009336530002 L 288.74688326386456 1973.4559106730005" stroke-miterlimit="10" stroke-width="1.3612669416666667" stroke-dasharray="12.565541,5.445067766666667"/><path fill="none" stroke="black" paint-order="fill stroke markers" d=" M 424.39757432297915 128.80307802049998 L 424.39757432297915 1973.4559106730005" stroke-miterlimit="10" stroke-width="1.3612669416666667" stroke-dasharray="12.565541,5.445067766666667"/><path fill="none" stroke="black" paint-order="fill stroke markers" d=" M 553.9897390964792 615.1020802615001 L 553.9897390964792 1916.2826991230006" stroke-miterlimit="10" stroke-width="1.3612669416666667" stroke-dasharray="12.565541,5.445067766666667"/><path fill="none" stroke="black" paint-order="fill stroke markers" d=" M 712.4249455364532 128.80307802049998 L 712.4249455364532 1973.4559106730005" stroke-miterlimit="10" stroke-width="1.3612669416666667" stroke-dasharray="12.565541,5.445067766666667"/><path fill="none" stroke="black" paint-order="fill stroke markers" d=" M 915.6847674549427 948.0951995319998 L 915.6847674549427 1916.2826991230006" stroke-miterlimit="10" stroke-width="1.3612669416666667" stroke-dasharray="12.565541,5.445067766666667"/></g><g><g><path fill="white" stroke="black" paint-order="fill stroke markers" d=" M 32.95468071459375 59.70516806150002 A 9.311065881 9.311065881 0 1 1 32.9546760590612 59.69585699717086 M 23.64361483359375 69.01623394250002 L 23.64361483359375 88.94518196850002 M 11.882268457593753 76.20372339450002 L 35.40496120959375 76.20372339450002 M 23.64361483359375 88.94518196850002 L 11.882268457593753 107.56731373050002 M 23.64361483359375 88.94518196850002 L 35.40496120959375 107.56731373050002" stroke-miterlimit="10" stroke-width="2.7769845610000004" stroke-dasharray=""/></g><g><g/><text fill="black" stroke="none" font-family="sans-serif" font-size="11pt" font-style="normal" font-weight="normal" text-decoration="normal" x="8.167601650000002" y="123.90251703050001" text-anchor="start" dominant-baseline="alphabetic">User</text></g><path fill="none" stroke="none"/><g><path fill="white" stroke="black" paint-order="fill stroke markers" d=" M 109.1046374118177 84.69802911050002 L 215.9836386802396 84.69802911050002 L 215.9836386802396 128.8030780205 L 109.1046374118177 128.8030780205 L 109.1046374118177 84.69802911050002 Z" stroke-miterlimit="10" stroke-width="2.613632528" stroke-dasharray=""/></g><g><g/><text fill="black" stroke="none" font-family="sans-serif" font-size="11pt" font-style="normal" font-weight="normal" text-decoration="normal" x="126.82833299231771" y="112.46787472049999" text-anchor="start" dominant-baseline="alphabetic">Web Client</text></g><path fill="none" stroke="none"/><g><path fill="white" stroke="black" paint-order="fill stroke markers" d=" M 369.60159785869007 84.69802911050002 L 479.19355078726824 84.69802911050002 L 479.19355078726824 128.8030780205 L 369.60159785869007 128.8030780205 L 369.60159785869007 84.69802911050002 Z" stroke-miterlimit="10" stroke-width="2.613632528" stroke-dasharray=""/></g><g><g/><text fill="black" stroke="none" font-family="sans-serif" font-size="11pt" font-style="normal" font-weight="normal" text-decoration="normal" x="387.3252934391901" y="112.46787472049999" text-anchor="start" dominant-baseline="alphabetic">Hub Server</text></g><path fill="none" stroke="none"/><g><path fill="white" stroke="black" paint-order="fill stroke markers" d=" M 651.1150072801719 84.69802911050002 L 773.7348837927344 84.69802911050002 L 773.7348837927344 128.8030780205 L 651.1150072801719 128.8030780205 L 651.1150072801719 84.69802911050002 Z" stroke-miterlimit="10" stroke-width="2.613632528" stroke-dasharray=""/></g><g><g/><text fill="black" stroke="none" font-family="sans-serif" font-size="11pt" font-style="normal" font-weight="normal" text-decoration="normal" x="668.8387028606719" y="112.46787472049999" text-anchor="start" dominant-baseline="alphabetic">Game Server</text></g></g><g><g><g><rect fill="white" stroke="none" x="64.5770447363151" y="161.4734846205" width="57.03366340699219" height="21.23576429"/></g><text fill="black" stroke="none" font-family="sans-serif" font-size="11pt" font-style="normal" font-weight="normal" text-decoration="normal" x="67.0273252313151" y="176.17516759049997" text-anchor="start" dominant-baseline="alphabetic">/servers</text></g><g><path fill="none" stroke="black" paint-order="fill stroke markers" d=" M 23.64361483359375 182.70924891049998 L 159.8216041626953 182.70924891049998" stroke-miterlimit="10" stroke-width="1.3612669416666667" stroke-dasharray=""/><g transform="translate(162.54413804602865,182.70924891049998) translate(-162.54413804602865,-182.70924891049998)"><path fill="black" stroke="none" paint-order="stroke fill markers" d=" M 148.93146862936197 175.90291420216664 L 162.54413804602865 182.70924891049998 L 148.93146862936197 189.51558361883332 Z"/></g></g><g><g><rect fill="white" stroke="none" x="253.13584821147654" y="207.2120538605" width="80.67001594605469" height="21.23576429"/></g><text fill="black" stroke="none" font-family="sans-serif" font-size="11pt" font-style="normal" font-weight="normal" text-decoration="normal" x="255.58612870647653" y="221.91373683049997" text-anchor="start" dominant-baseline="alphabetic">/api/servers</text></g><g><path fill="none" stroke="black" paint-order="fill stroke markers" d=" M 162.54413804602865 228.44781815049998 L 421.67504043964584 228.44781815049998" stroke-miterlimit="10" stroke-width="1.3612669416666667" stroke-dasharray=""/><g transform="translate(424.39757432297915,228.44781815049998) translate(-424.39757432297915,-228.44781815049998)"><path fill="black" stroke="none" paint-order="stroke fill markers" d=" M 410.7849049063125 221.64148344216665 L 424.39757432297915 228.44781815049998 L 410.7849049063125 235.25415285883332 Z"/></g></g><g><g><rect fill="white" stroke="none" x="262.91751782817573" y="252.9506231005" width="61.10667671265625" height="21.23576429"/></g><text fill="black" stroke="none" font-family="sans-serif" font-size="11pt" font-style="normal" font-weight="normal" text-decoration="normal" x="265.36779832317575" y="267.6523060705" text-anchor="start" dominant-baseline="alphabetic">servers[]</text></g><g><path fill="none" stroke="black" paint-order="fill stroke markers" d=" M 424.39757432297915 274.1863873905 L 165.266671929362 274.1863873905" stroke-miterlimit="10" stroke-width="1.3612669416666667" stroke-dasharray="6.53408132"/><g transform="translate(162.54413804602865,274.1863873905) translate(-162.54413804602865,-274.1863873905)"><path fill="black" stroke="none" paint-order="stroke fill markers" d=" M 176.15680746269533 267.38005268216665 L 162.54413804602865 274.1863873905 L 176.15680746269533 280.9927220988333 Z"/></g></g><g><g><rect fill="white" stroke="none" x="90.6435959448112" y="298.6891923405" width="4.90056099" height="21.23576429"/></g><text fill="black" stroke="none" font-family="sans-serif" font-size="11pt" font-style="normal" font-weight="normal" text-decoration="normal" x="93.0938764398112" y="313.39087531049995" text-anchor="start" dominant-baseline="alphabetic"></text></g><g><path fill="none" stroke="black" paint-order="fill stroke markers" d=" M 162.54413804602865 319.9249566305 L 26.366148716927086 319.9249566305" stroke-miterlimit="10" stroke-width="1.3612669416666667" stroke-dasharray="6.53408132"/><g transform="translate(23.64361483359375,319.9249566305) translate(-23.64361483359375,-319.9249566305)"><path fill="black" stroke="none" paint-order="stroke fill markers" d=" M 37.25628425026042 313.11862192216665 L 23.64361483359375 319.9249566305 L 37.25628425026042 326.73129133883333 Z"/></g></g><g><g><rect fill="white" stroke="none" x="42.973605405260415" y="385.2657698305" width="100.24054206910156" height="21.23576429"/></g><text fill="black" stroke="none" font-family="sans-serif" font-size="11pt" font-style="normal" font-weight="normal" text-decoration="normal" x="45.423885900260416" y="399.9674528005" text-anchor="start" dominant-baseline="alphabetic">/server/{name}</text></g><g><path fill="none" stroke="black" paint-order="fill stroke markers" d=" M 23.64361483359375 406.5015341205 L 159.8216041626953 406.5015341205" stroke-miterlimit="10" stroke-width="1.3612669416666667" stroke-dasharray=""/><g transform="translate(162.54413804602865,406.5015341205) translate(-162.54413804602865,-406.5015341205)"><path fill="black" stroke="none" paint-order="stroke fill markers" d=" M 148.93146862936197 399.6951994121667 L 162.54413804602865 406.5015341205 L 148.93146862936197 413.30786882883336 Z"/></g></g><g><g><rect fill="white" stroke="none" x="243.35417859477732" y="431.0043390705" width="100.23335517945313" height="21.23576429"/></g><text fill="black" stroke="none" font-family="sans-serif" font-size="11pt" font-style="normal" font-weight="normal" text-decoration="normal" x="245.8044590897773" y="445.7060220405" text-anchor="start" dominant-baseline="alphabetic">/api/server/join</text></g><g><path fill="none" stroke="black" paint-order="fill stroke markers" d=" M 162.54413804602865 452.24010336050003 L 421.67504043964584 452.24010336050003" stroke-miterlimit="10" stroke-width="1.3612669416666667" stroke-dasharray=""/><g transform="translate(424.39757432297915,452.24010336050003) translate(-424.39757432297915,-452.24010336050003)"><path fill="black" stroke="none" paint-order="stroke fill markers" d=" M 410.7849049063125 445.4337686521667 L 424.39757432297915 452.24010336050003 L 410.7849049063125 459.04643806883337 Z"/></g></g><g><g><rect fill="white" stroke="none" x="258.4293281309101" y="476.7429083105" width="70.0830561071875" height="21.23576429"/></g><text fill="black" stroke="none" font-family="sans-serif" font-size="11pt" font-style="normal" font-weight="normal" text-decoration="normal" x="260.8796086259101" y="491.4445912805" text-anchor="start" dominant-baseline="alphabetic">serverInfo</text></g><g><path fill="none" stroke="black" paint-order="fill stroke markers" d=" M 424.39757432297915 497.97867260050003 L 165.266671929362 497.97867260050003" stroke-miterlimit="10" stroke-width="1.3612669416666667" stroke-dasharray="6.53408132"/><g transform="translate(162.54413804602865,497.97867260050003) translate(-162.54413804602865,-497.97867260050003)"><path fill="black" stroke="none" paint-order="stroke fill markers" d=" M 176.15680746269533 491.1723378921667 L 162.54413804602865 497.97867260050003 L 176.15680746269533 504.78500730883337 Z"/></g></g><g><g><rect fill="white" stroke="none" x="90.6435959448112" y="522.4814775505" width="4.90056099" height="21.23576429"/></g><text fill="black" stroke="none" font-family="sans-serif" font-size="11pt" font-style="normal" font-weight="normal" text-decoration="normal" x="93.0938764398112" y="537.1831605205" text-anchor="start" dominant-baseline="alphabetic"></text></g><g><path fill="none" stroke="black" paint-order="fill stroke markers" d=" M 162.54413804602865 543.7172418405 L 26.366148716927086 543.7172418405" stroke-miterlimit="10" stroke-width="1.3612669416666667" stroke-dasharray="6.53408132"/><g transform="translate(23.64361483359375,543.7172418405) translate(-23.64361483359375,-543.7172418405)"><path fill="black" stroke="none" paint-order="stroke fill markers" d=" M 37.25628425026042 536.9109071321667 L 23.64361483359375 543.7172418405 L 37.25628425026042 550.5235765488334 Z"/></g></g><path fill="none" stroke="none"/><g><path fill="white" stroke="black" paint-order="fill stroke markers" d=" M 495.5287540872682 569.608539071 L 612.4507241056901 569.608539071 L 612.4507241056901 613.713587981 L 495.5287540872682 613.713587981 L 495.5287540872682 569.608539071 Z" stroke-miterlimit="10" stroke-width="2.613632528" stroke-dasharray=""/></g><g><g/><text fill="black" stroke="none" font-family="sans-serif" font-size="11pt" font-style="normal" font-weight="normal" text-decoration="normal" x="513.2524496677682" y="597.3783846810001" text-anchor="start" dominant-baseline="alphabetic">Game Client</text></g><g><g><rect fill="white" stroke="none" x="289.0915442947929" y="570.4252992360001" width="79.88980354371094" height="21.23576429"/></g><text fill="black" stroke="none" font-family="sans-serif" font-size="11pt" font-style="normal" font-weight="normal" text-decoration="normal" x="291.54182478979294" y="585.1269822060001" text-anchor="start" dominant-baseline="alphabetic">&lt;&lt;create&gt;&gt;</text></g><g><path fill="none" stroke="black" paint-order="fill stroke markers" d=" M 162.54413804602865 591.6610635260001 L 492.8062202039349 591.6610635260001" stroke-miterlimit="10" stroke-width="1.3612669416666667" stroke-dasharray=""/><g transform="translate(495.5287540872682,591.6610635260001) translate(-495.5287540872682,-591.6610635260001)"><path fill="black" stroke="none" paint-order="stroke fill markers" d=" M 481.91608467060155 584.8547288176668 L 495.5287540872682 591.6610635260001 L 481.91608467060155 598.4673982343335 Z"/></g></g><g><g><rect fill="white" stroke="none" x="308.558258112875" y="639.6048852115" width="99.41736091675781" height="21.23576429"/></g><text fill="black" stroke="none" font-family="sans-serif" font-size="11pt" font-style="normal" font-weight="normal" text-decoration="normal" x="311.00853860787504" y="654.3065681815" text-anchor="start" dominant-baseline="alphabetic">getGameInfo()</text></g><g><path fill="none" stroke="black" paint-order="fill stroke markers" d=" M 553.9897390964792 660.8406495015 L 165.266671929362 660.8406495015" stroke-miterlimit="10" stroke-width="1.3612669416666667" stroke-dasharray=""/><g transform="translate(162.54413804602865,660.8406495015) translate(-162.54413804602865,-660.8406495015)"><path fill="black" stroke="none" paint-order="stroke fill markers" d=" M 176.15680746269533 654.0343147931667 L 162.54413804602865 660.8406495015 L 176.15680746269533 667.6469842098334 Z"/></g></g><g><g><rect fill="white" stroke="none" x="292.6670837964688" y="685.3434544515" width="131.19970954957031" height="21.23576429"/></g><text fill="black" stroke="none" font-family="sans-serif" font-size="11pt" font-style="normal" font-weight="normal" text-decoration="normal" x="295.1173642914688" y="700.0451374214999" text-anchor="start" dominant-baseline="alphabetic">serverInfo, userInfo</text></g><g><path fill="none" stroke="black" paint-order="fill stroke markers" d=" M 162.54413804602865 706.5792187415 L 551.2672052131459 706.5792187415" stroke-miterlimit="10" stroke-width="1.3612669416666667" stroke-dasharray="6.53408132"/><g transform="translate(553.9897390964792,706.5792187415) translate(-553.9897390964792,-706.5792187415)"><path fill="black" stroke="none" paint-order="stroke fill markers" d=" M 540.3770696798125 699.7728840331666 L 553.9897390964792 706.5792187415 L 540.3770696798125 713.3855534498333 Z"/></g></g><g><g><rect fill="white" stroke="none" x="605.4922226491028" y="731.0820236914999" width="55.430239334726565" height="21.23576429"/></g><text fill="black" stroke="none" font-family="sans-serif" font-size="11pt" font-style="normal" font-weight="normal" text-decoration="normal" x="607.9425031441028" y="745.7837066614999" text-anchor="start" dominant-baseline="alphabetic">/api/join</text></g><g><path fill="none" stroke="black" paint-order="fill stroke markers" d=" M 553.9897390964792 752.3177879814999 L 709.7024116531198 752.3177879814999" stroke-miterlimit="10" stroke-width="1.3612669416666667" stroke-dasharray=""/><g transform="translate(712.4249455364532,752.3177879814999) translate(-712.4249455364532,-752.3177879814999)"><path fill="black" stroke="none" paint-order="stroke fill markers" d=" M 698.8122761197865 745.5114532731666 L 712.4249455364532 752.3177879814999 L 698.8122761197865 759.1241226898333 Z"/></g></g><g><g><rect fill="white" stroke="none" x="630.7570618214661" y="776.8205929314998" width="4.90056099" height="21.23576429"/></g><text fill="black" stroke="none" font-family="sans-serif" font-size="11pt" font-style="normal" font-weight="normal" text-decoration="normal" x="633.2073423164661" y="791.5222759014998" text-anchor="start" dominant-baseline="alphabetic"></text></g><g><path fill="none" stroke="black" paint-order="fill stroke markers" d=" M 712.4249455364532 798.0563572214999 L 556.7122729798125 798.0563572214999" stroke-miterlimit="10" stroke-width="1.3612669416666667" stroke-dasharray="6.53408132"/><g transform="translate(553.9897390964792,798.0563572214999) translate(-553.9897390964792,-798.0563572214999)"><path fill="black" stroke="none" paint-order="stroke fill markers" d=" M 567.6024085131459 791.2500225131665 L 553.9897390964792 798.0563572214999 L 567.6024085131459 804.8626919298332 Z"/></g></g><g><g><rect fill="white" stroke="none" x="286.3663964700364" y="822.5591621714998" width="4.90056099" height="21.23576429"/></g><text fill="black" stroke="none" font-family="sans-serif" font-size="11pt" font-style="normal" font-weight="normal" text-decoration="normal" x="288.81667696503644" y="837.2608451414998" text-anchor="start" dominant-baseline="alphabetic"></text></g><g><path fill="none" stroke="black" paint-order="fill stroke markers" d=" M 553.9897390964792 843.7949264614998 L 26.366148716927086 843.7949264614998" stroke-miterlimit="10" stroke-width="1.3612669416666667" stroke-dasharray="6.53408132"/><g transform="translate(23.64361483359375,843.7949264614998) translate(-23.64361483359375,-843.7949264614998)"><path fill="black" stroke="none" paint-order="stroke fill markers" d=" M 37.25628425026042 836.9885917531665 L 23.64361483359375 843.7949264614998 L 37.25628425026042 850.6012611698332 Z"/></g></g><g><path fill="white" stroke="black" paint-order="fill stroke markers" d=" M 924.9958333359427 878.9972895729998 A 9.311065881 9.311065881 0 1 1 924.9958286804102 878.9879785086706 M 915.6847674549427 888.3083554539998 L 915.6847674549427 908.2373034799998 M 903.9234210789427 895.4958449059998 L 927.4461138309427 895.4958449059998 M 915.6847674549427 908.2373034799998 L 903.9234210789427 926.8594352419998 M 915.6847674549427 908.2373034799998 L 927.4461138309427 926.8594352419998" stroke-miterlimit="10" stroke-width="2.7769845610000004" stroke-dasharray=""/></g><g><g/><text fill="black" stroke="none" font-family="sans-serif" font-size="11pt" font-style="normal" font-weight="normal" text-decoration="normal" x="868.8343798817006" y="943.1946385419998" text-anchor="start" dominant-baseline="alphabetic">Game Client 2</text></g><g><g><rect fill="white" stroke="none" x="272.9197335672044" y="972.5980044819997" width="31.79388679566406" height="21.23576429"/></g><text fill="black" stroke="none" font-family="sans-serif" font-size="11pt" font-style="normal" font-weight="normal" text-decoration="normal" x="275.3700140622044" y="987.2996874519997" text-anchor="start" dominant-baseline="alphabetic">play</text></g><g><path fill="none" stroke="black" paint-order="fill stroke markers" d=" M 23.64361483359375 993.8337687719998 L 551.2672052131459 993.8337687719998" stroke-miterlimit="10" stroke-width="1.3612669416666667" stroke-dasharray=""/><g transform="translate(553.9897390964792,993.8337687719998) translate(-553.9897390964792,-993.8337687719998)"><path fill="black" stroke="none" paint-order="stroke fill markers" d=" M 540.3770696798125 987.0274340636664 L 553.9897390964792 993.8337687719998 L 540.3770696798125 1000.6401034803331 Z"/></g></g><g><g><rect fill="white" stroke="none" x="597.3426178517395" y="1018.3365737219998" width="71.72944892945313" height="21.23576429"/></g><text fill="black" stroke="none" font-family="sans-serif" font-size="11pt" font-style="normal" font-weight="normal" text-decoration="normal" x="599.7928983467395" y="1033.0382566919998" text-anchor="start" dominant-baseline="alphabetic">/api/action</text></g><g><path fill="none" stroke="black" paint-order="fill stroke markers" d=" M 553.9897390964792 1039.5723380119998 L 709.7024116531198 1039.5723380119998" stroke-miterlimit="10" stroke-width="1.3612669416666667" stroke-dasharray=""/><g transform="translate(712.4249455364532,1039.5723380119998) translate(-712.4249455364532,-1039.5723380119998)"><path fill="black" stroke="none" paint-order="stroke fill markers" d=" M 698.8122761197865 1032.7660033036666 L 712.4249455364532 1039.5723380119998 L 698.8122761197865 1046.378672720333 Z"/></g></g><g><g><rect fill="white" stroke="none" x="612.8329514088684" y="1064.075142962" width="40.748781815195315" height="21.23576429"/></g><text fill="black" stroke="none" font-family="sans-serif" font-size="11pt" font-style="normal" font-weight="normal" text-decoration="normal" x="615.2832319038685" y="1078.776825932" text-anchor="start" dominant-baseline="alphabetic">result</text></g><g><path fill="none" stroke="black" paint-order="fill stroke markers" d=" M 712.4249455364532 1085.3109072519999 L 556.7122729798125 1085.3109072519999" stroke-miterlimit="10" stroke-width="1.3612669416666667" stroke-dasharray="6.53408132"/><g transform="translate(553.9897390964792,1085.3109072519999) translate(-553.9897390964792,-1085.3109072519999)"><path fill="black" stroke="none" paint-order="stroke fill markers" d=" M 567.6024085131459 1078.5045725436667 L 553.9897390964792 1085.3109072519999 L 567.6024085131459 1092.117241960333 Z"/></g></g><g><g><rect fill="white" stroke="none" x="771.2681578488425" y="1109.813712202" width="85.57339729371094" height="21.23576429"/></g><text fill="black" stroke="none" font-family="sans-serif" font-size="11pt" font-style="normal" font-weight="normal" text-decoration="normal" x="773.7184383438425" y="1124.5153951720001" text-anchor="start" dominant-baseline="alphabetic">actionResult</text></g><g><path fill="none" stroke="black" paint-order="fill stroke markers" d=" M 712.4249455364532 1131.049476492 L 912.9622335716094 1131.049476492" stroke-miterlimit="10" stroke-width="1.3612669416666667" stroke-dasharray=""/><g transform="translate(915.6847674549427,1131.049476492) translate(-915.6847674549427,-1131.049476492)"><path fill="none" stroke="black" paint-order="fill stroke markers" d=" M 902.0720980382761 1124.2431417836667 L 914.323500513276 1131.049476492 L 902.0720980382761 1137.8558112003332" stroke-miterlimit="10" stroke-width="1.3612669416666667"/></g></g><g><g><rect fill="white" stroke="none" x="286.3663964700364" y="1155.552281442" width="4.90056099" height="21.23576429"/></g><text fill="black" stroke="none" font-family="sans-serif" font-size="11pt" font-style="normal" font-weight="normal" text-decoration="normal" x="288.81667696503644" y="1170.2539644120002" text-anchor="start" dominant-baseline="alphabetic"></text></g><g><path fill="none" stroke="black" paint-order="fill stroke markers" d=" M 553.9897390964792 1176.788045732 L 26.366148716927086 1176.788045732" stroke-miterlimit="10" stroke-width="1.3612669416666667" stroke-dasharray="6.53408132"/><g transform="translate(23.64361483359375,1176.788045732) translate(-23.64361483359375,-1176.788045732)"><path fill="black" stroke="none" paint-order="stroke fill markers" d=" M 37.25628425026042 1169.9817110236668 L 23.64361483359375 1176.788045732 L 37.25628425026042 1183.5943804403332 Z"/></g></g><g><g><rect fill="white" stroke="none" x="778.1901320309714" y="1201.2908506820002" width="71.72944892945313" height="21.23576429"/></g><text fill="black" stroke="none" font-family="sans-serif" font-size="11pt" font-style="normal" font-weight="normal" text-decoration="normal" x="780.6404125259714" y="1215.9925336520002" text-anchor="start" dominant-baseline="alphabetic">/api/action</text></g><g><path fill="none" stroke="black" paint-order="fill stroke markers" d=" M 915.6847674549427 1222.526614972 L 715.1474794197865 1222.526614972" stroke-miterlimit="10" stroke-width="1.3612669416666667" stroke-dasharray=""/><g transform="translate(712.4249455364532,1222.526614972) translate(-712.4249455364532,-1222.526614972)"><path fill="black" stroke="none" paint-order="stroke fill markers" d=" M 726.0376149531198 1215.7202802636668 L 712.4249455364532 1222.526614972 L 726.0376149531198 1229.3329496803333 Z"/></g></g><g><g><rect fill="white" stroke="none" x="793.6804655881003" y="1247.0294199220002" width="40.748781815195315" height="21.23576429"/></g><text fill="black" stroke="none" font-family="sans-serif" font-size="11pt" font-style="normal" font-weight="normal" text-decoration="normal" x="796.1307460831003" y="1261.7311028920003" text-anchor="start" dominant-baseline="alphabetic">result</text></g><g><path fill="none" stroke="black" paint-order="fill stroke markers" d=" M 712.4249455364532 1268.2651842120001 L 912.9622335716094 1268.2651842120001" stroke-miterlimit="10" stroke-width="1.3612669416666667" stroke-dasharray="6.53408132"/><g transform="translate(915.6847674549427,1268.2651842120001) translate(-915.6847674549427,-1268.2651842120001)"><path fill="black" stroke="none" paint-order="stroke fill markers" d=" M 902.0720980382761 1261.458849503667 L 915.6847674549427 1268.2651842120001 L 902.0720980382761 1275.0715189203333 Z"/></g></g><g><g><rect fill="white" stroke="none" x="590.4206436696106" y="1292.7679891620003" width="85.57339729371094" height="21.23576429"/></g><text fill="black" stroke="none" font-family="sans-serif" font-size="11pt" font-style="normal" font-weight="normal" text-decoration="normal" x="592.8709241646106" y="1307.4696721320004" text-anchor="start" dominant-baseline="alphabetic">actionResult</text></g><g><path fill="none" stroke="black" paint-order="fill stroke markers" d=" M 712.4249455364532 1314.0037534520002 L 556.7122729798125 1314.0037534520002" stroke-miterlimit="10" stroke-width="1.3612669416666667" stroke-dasharray=""/><g transform="translate(553.9897390964792,1314.0037534520002) translate(-553.9897390964792,-1314.0037534520002)"><path fill="none" stroke="black" paint-order="fill stroke markers" d=" M 567.6024085131459 1307.197418743667 L 555.3510060381459 1314.0037534520002 L 567.6024085131459 1320.8100881603334" stroke-miterlimit="10" stroke-width="1.3612669416666667"/></g></g><g><g><rect fill="white" stroke="none" x="286.3663964700364" y="1338.5065584020003" width="4.90056099" height="21.23576429"/></g><text fill="black" stroke="none" font-family="sans-serif" font-size="11pt" font-style="normal" font-weight="normal" text-decoration="normal" x="288.81667696503644" y="1353.2082413720004" text-anchor="start" dominant-baseline="alphabetic"></text></g><g><path fill="none" stroke="black" paint-order="fill stroke markers" d=" M 553.9897390964792 1359.7423226920002 L 26.366148716927086 1359.7423226920002" stroke-miterlimit="10" stroke-width="1.3612669416666667" stroke-dasharray="6.53408132"/><g transform="translate(23.64361483359375,1359.7423226920002) translate(-23.64361483359375,-1359.7423226920002)"><path fill="black" stroke="none" paint-order="stroke fill markers" d=" M 37.25628425026042 1352.935987983667 L 23.64361483359375 1359.7423226920002 L 37.25628425026042 1366.5486574003335 Z"/></g></g><path fill="none" stroke="black" paint-order="fill stroke markers" d=" M 8.16760165 1397.5855436703337 L 961.83239835 1397.5855436703337 M 8.16760165 1403.0306114370003 L 961.83239835 1403.0306114370003 M 8.16760165 1408.475679203667 L 961.83239835 1408.475679203667" stroke-miterlimit="10" stroke-width="1.3612669416666667" stroke-dasharray=""/><path fill="white" stroke="black" paint-order="fill stroke markers" d=" M 456.02119542150393 1384.2451276420002 L 513.9788045784961 1384.2451276420002 L 513.9788045784961 1421.8160952320002 L 456.02119542150393 1421.8160952320002 Z" stroke-miterlimit="10" stroke-width="1.3612669416666667" stroke-dasharray=""/><g><text fill="black" stroke="none" font-family="sans-serif" font-size="11pt" font-style="normal" font-weight="normal" text-decoration="normal" x="478.8904800415039" y="1407.1144122620003" text-anchor="start" dominant-baseline="alphabetic">...</text></g><path fill="none" stroke="none"/><g><path fill="white" stroke="black" paint-order="fill stroke markers" d=" M 232.31884198023954 1449.0958847430004 L 345.1749245474896 1449.0958847430004 L 345.1749245474896 1493.2009336530004 L 232.31884198023954 1493.2009336530004 L 232.31884198023954 1449.0958847430004 Z" stroke-miterlimit="10" stroke-width="2.613632528" stroke-dasharray=""/></g><g><g/><text fill="black" stroke="none" font-family="sans-serif" font-size="11pt" font-style="normal" font-weight="normal" text-decoration="normal" x="250.04253756073956" y="1476.8657303530001" text-anchor="start" dominant-baseline="alphabetic">Auth Server</text></g><g><g><rect fill="white" stroke="none" x="597.3426178517395" y="1517.7037386030004" width="71.72944892945313" height="21.23576429"/></g><text fill="black" stroke="none" font-family="sans-serif" font-size="11pt" font-style="normal" font-weight="normal" text-decoration="normal" x="599.7928983467395" y="1532.4054215730005" text-anchor="start" dominant-baseline="alphabetic">/api/action</text></g><g><path fill="none" stroke="black" paint-order="fill stroke markers" d=" M 553.9897390964792 1538.9395028930003 L 709.7024116531198 1538.9395028930003" stroke-miterlimit="10" stroke-width="1.3612669416666667" stroke-dasharray=""/><g transform="translate(712.4249455364532,1538.9395028930003) translate(-712.4249455364532,-1538.9395028930003)"><path fill="black" stroke="none" paint-order="stroke fill markers" d=" M 698.8122761197865 1532.133168184667 L 712.4249455364532 1538.9395028930003 L 698.8122761197865 1545.7458376013335 Z"/></g></g><g><g><rect fill="white" stroke="none" x="497.10990521596614" y="1563.4423078430002" width="142.6027094275" height="21.23576429"/></g><g><rect fill="white" stroke="none" x="497.10990521596614" y="1579.7775111430003" width="83.12530769410156" height="21.23576429"/></g><text fill="black" stroke="none" font-family="sans-serif" font-size="11pt" font-style="normal" font-weight="normal" text-decoration="normal" x="499.56018571096615" y="1578.1439908130003" text-anchor="start" dominant-baseline="alphabetic">/api/server/gameover</text><text fill="black" stroke="none" font-family="sans-serif" font-size="11pt" font-style="normal" font-weight="normal" text-decoration="normal" x="499.56018571096615" y="1594.4791941130004" text-anchor="start" dominant-baseline="alphabetic">gameResult</text></g><g><path fill="none" stroke="black" paint-order="fill stroke markers" d=" M 712.4249455364532 1601.0132754330002 L 427.12010820631247 1601.0132754330002" stroke-miterlimit="10" stroke-width="1.3612669416666667" stroke-dasharray=""/><g transform="translate(424.39757432297915,1601.0132754330002) translate(-424.39757432297915,-1601.0132754330002)"><path fill="none" stroke="black" paint-order="fill stroke markers" d=" M 438.01024373964583 1594.206940724667 L 425.7588412646458 1601.0132754330002 L 438.01024373964583 1607.8196101413334" stroke-miterlimit="10" stroke-width="1.3612669416666667"/></g></g><g><g><rect fill="white" stroke="none" x="308.0768738355312" y="1625.5160803830004" width="96.99070991578125" height="21.23576429"/></g><text fill="black" stroke="none" font-family="sans-serif" font-size="11pt" font-style="normal" font-weight="normal" text-decoration="normal" x="310.52715433053123" y="1640.2177633530005" text-anchor="start" dominant-baseline="alphabetic">/api/score/add</text></g><g><path fill="none" stroke="black" paint-order="fill stroke markers" d=" M 424.39757432297915 1646.7518446730003 L 291.4694171471979 1646.7518446730003" stroke-miterlimit="10" stroke-width="1.3612669416666667" stroke-dasharray=""/><g transform="translate(288.74688326386456,1646.7518446730003) translate(-288.74688326386456,-1646.7518446730003)"><path fill="none" stroke="black" paint-order="fill stroke markers" d=" M 302.35955268053124 1639.945509964667 L 290.1081502055312 1646.7518446730003 L 302.35955268053124 1653.5581793813335" stroke-miterlimit="10" stroke-width="1.3612669416666667"/></g></g><g><g><rect fill="white" stroke="none" x="354.12194829842184" y="1671.2546496230004" width="4.90056099" height="21.23576429"/></g><text fill="black" stroke="none" font-family="sans-serif" font-size="11pt" font-style="normal" font-weight="normal" text-decoration="normal" x="356.57222879342186" y="1685.9563325930005" text-anchor="start" dominant-baseline="alphabetic"></text></g><g><path fill="none" stroke="black" paint-order="fill stroke markers" d=" M 288.74688326386456 1692.4904139130003 L 421.67504043964584 1692.4904139130003" stroke-miterlimit="10" stroke-width="1.3612669416666667" stroke-dasharray="6.53408132"/><g transform="translate(424.39757432297915,1692.4904139130003) translate(-424.39757432297915,-1692.4904139130003)"><path fill="none" stroke="black" paint-order="fill stroke markers" d=" M 410.7849049063125 1685.6840792046671 L 423.0363073813125 1692.4904139130003 L 410.7849049063125 1699.2967486213336" stroke-miterlimit="10" stroke-width="1.3612669416666667"/></g></g><g><g><rect fill="white" stroke="none" x="565.9609794347161" y="1716.9932188630005" width="4.90056099" height="21.23576429"/></g><text fill="black" stroke="none" font-family="sans-serif" font-size="11pt" font-style="normal" font-weight="normal" text-decoration="normal" x="568.4112599297162" y="1731.6949018330006" text-anchor="start" dominant-baseline="alphabetic"></text></g><g><path fill="none" stroke="black" paint-order="fill stroke markers" d=" M 424.39757432297915 1738.2289831530004 L 709.7024116531198 1738.2289831530004" stroke-miterlimit="10" stroke-width="1.3612669416666667" stroke-dasharray="6.53408132"/><g transform="translate(712.4249455364532,1738.2289831530004) translate(-712.4249455364532,-1738.2289831530004)"><path fill="none" stroke="black" paint-order="fill stroke markers" d=" M 698.8122761197865 1731.4226484446672 L 711.0636785947864 1738.2289831530004 L 698.8122761197865 1745.0353178613336" stroke-miterlimit="10" stroke-width="1.3612669416666667"/></g></g><g><g><rect fill="white" stroke="none" x="573.3197296681458" y="1762.7317881030006" width="119.77522529664063" height="21.23576429"/></g><text fill="black" stroke="none" font-family="sans-serif" font-size="11pt" font-style="normal" font-weight="normal" text-decoration="normal" x="575.7700101631458" y="1777.4334710730006" text-anchor="start" dominant-baseline="alphabetic">result(game over)</text></g><g><path fill="none" stroke="black" paint-order="fill stroke markers" d=" M 712.4249455364532 1783.9675523930005 L 556.7122729798125 1783.9675523930005" stroke-miterlimit="10" stroke-width="1.3612669416666667" stroke-dasharray="6.53408132"/><g transform="translate(553.9897390964792,1783.9675523930005) translate(-553.9897390964792,-1783.9675523930005)"><path fill="black" stroke="none" paint-order="stroke fill markers" d=" M 567.6024085131459 1777.1612176846672 L 553.9897390964792 1783.9675523930005 L 567.6024085131459 1790.7738871013337 Z"/></g></g><g><g><rect fill="white" stroke="none" x="731.7549361081199" y="1808.4703573430006" width="164.59984077515625" height="21.23576429"/></g><text fill="black" stroke="none" font-family="sans-serif" font-size="11pt" font-style="normal" font-weight="normal" text-decoration="normal" x="734.2052166031199" y="1823.1720403130007" text-anchor="start" dominant-baseline="alphabetic">actionResult(game over)</text></g><g><path fill="none" stroke="black" paint-order="fill stroke markers" d=" M 712.4249455364532 1829.7061216330005 L 912.9622335716094 1829.7061216330005" stroke-miterlimit="10" stroke-width="1.3612669416666667" stroke-dasharray=""/><g transform="translate(915.6847674549427,1829.7061216330005) translate(-915.6847674549427,-1829.7061216330005)"><path fill="none" stroke="black" paint-order="fill stroke markers" d=" M 902.0720980382761 1822.8997869246673 L 914.323500513276 1829.7061216330005 L 902.0720980382761 1836.5124563413337" stroke-miterlimit="10" stroke-width="1.3612669416666667"/></g></g><g><g><rect fill="white" stroke="none" x="286.3663964700364" y="1854.2089265830007" width="4.90056099" height="21.23576429"/></g><text fill="black" stroke="none" font-family="sans-serif" font-size="11pt" font-style="normal" font-weight="normal" text-decoration="normal" x="288.81667696503644" y="1868.9106095530008" text-anchor="start" dominant-baseline="alphabetic"></text></g><g><path fill="none" stroke="black" paint-order="fill stroke markers" d=" M 553.9897390964792 1875.4446908730006 L 26.366148716927086 1875.4446908730006" stroke-miterlimit="10" stroke-width="1.3612669416666667" stroke-dasharray="6.53408132"/><g transform="translate(23.64361483359375,1875.4446908730006) translate(-23.64361483359375,-1875.4446908730006)"><path fill="black" stroke="none" paint-order="stroke fill markers" d=" M 37.25628425026042 1868.6383561646674 L 23.64361483359375 1875.4446908730006 L 37.25628425026042 1882.2510255813338 Z"/></g></g><g><path fill="none" stroke="black" paint-order="fill stroke markers" d=" M 539.2880561264792 1901.5810161530005 L 568.6914220664792 1930.9843820930007 M 568.6914220664792 1901.5810161530005 L 539.2880561264792 1930.9843820930007" stroke-miterlimit="10" stroke-width="2.613632528" stroke-dasharray=""/></g><g><path fill="none" stroke="black" paint-order="fill stroke markers" d=" M 900.9830844849428 1901.5810161530005 L 930.3864504249427 1930.9843820930007 M 930.3864504249427 1901.5810161530005 L 900.9830844849428 1930.9843820930007" stroke-miterlimit="10" stroke-width="2.613632528" stroke-dasharray=""/></g></g><g/><g/><g/><g/></g></svg>