<svg version="1.1" xmlns="http://www.w3.org/2000/svg" xmlns:xlink="http://www.w3.org/1999/xlink" width="588" height="1119"><defs/><g><g/><g/><g/><g/><g/><g/><g/><g/><g/><g/><g/><g/><g/><g/><g/><g><rect fill="white" stroke="none" x="0" y="0" width="588" height="1119"/></g><g><text fill="black" stroke="none" font-family="sans-serif" font-size="16.5pt" font-style="normal" font-weight="normal" text-decoration="normal" x="228.00854713370637" y="24.50280495" text-anchor="start" dominant-baseline="alphabetic">Server create</text></g><g/><g><path fill="none" stroke="black" paint-order="fill stroke markers" d=" M 23.64361483359375 128.80307802049998 L 23.64361483359375 1119.6148341819996" stroke-miterlimit="10" stroke-width="1.3612669416666667" stroke-dasharray="12.565541,5.445067766666667"/><path fill="none" stroke="black" paint-order="fill stroke markers" d=" M 75.00743599248048 879.4873456719998 L 75.00743599248048 1119.6148341819996" stroke-miterlimit="10" stroke-width="1.3612669416666667" stroke-dasharray="12.565541,5.445067766666667"/><path fill="none" stroke="black" paint-order="fill stroke markers" d=" M 170.701080542806 128.80307802049998 L 170.701080542806 1119.6148341819996" stroke-miterlimit="10" stroke-width="1.3612669416666667" stroke-dasharray="12.565541,5.445067766666667"/><path fill="none" stroke="black" paint-order="fill stroke markers" d=" M 382.12127233434245 128.80307802049998 L 382.12127233434245 1119.6148341819996" stroke-miterlimit="10" stroke-width="1.3612669416666667" stroke-dasharray="12.565541,5.445067766666667"/><path fill="none" stroke="black" paint-order="fill stroke markers" d=" M 514.5623903549127 208.35551809149996 L 514.5623903549127 1119.6148341819996" stroke-miterlimit="10" stroke-width="1.3612669416666667" stroke-dasharray="12.565541,5.445067766666667"/></g><g><g><path fill="white" stroke="black" paint-order="fill stroke markers" d=" M 32.95468071459375 59.70516806150002 A 9.311065881 9.311065881 0 1 1 32.9546760590612 59.69585699717086 M 23.64361483359375 69.01623394250002 L 23.64361483359375 88.94518196850002 M 11.882268457593753 76.20372339450002 L 35.40496120959375 76.20372339450002 M 23.64361483359375 88.94518196850002 L 11.882268457593753 107.56731373050002 M 23.64361483359375 88.94518196850002 L 35.40496120959375 107.56731373050002" stroke-miterlimit="10" stroke-width="2.7769845610000004" stroke-dasharray=""/></g><g><g/><text fill="black" stroke="none" font-family="sans-serif" font-size="11pt" font-style="normal" font-weight="normal" text-decoration="normal" x="8.167601650000002" y="123.90251703050001" text-anchor="start" dominant-baseline="alphabetic">User</text></g><path fill="none" stroke="none"/><g><path fill="white" stroke="black" paint-order="fill stroke markers" d=" M 117.26157990859507 84.69802911050002 L 224.14058117701694 84.69802911050002 L 224.14058117701694 128.8030780205 L 117.26157990859507 128.8030780205 L 117.26157990859507 84.69802911050002 Z" stroke-miterlimit="10" stroke-width="2.613632528" stroke-dasharray=""/></g><g><g/><text fill="black" stroke="none" font-family="sans-serif" font-size="11pt" font-style="normal" font-weight="normal" text-decoration="normal" x="134.98527548909507" y="112.46787472049999" text-anchor="start" dominant-baseline="alphabetic">Web Client</text></g><path fill="none" stroke="none"/><g><path fill="white" stroke="black" paint-order="fill stroke markers" d=" M 327.32529587005337 84.69802911050002 L 436.9172487986315 84.69802911050002 L 436.9172487986315 128.8030780205 L 327.32529587005337 128.8030780205 L 327.32529587005337 84.69802911050002 Z" stroke-miterlimit="10" stroke-width="2.613632528" stroke-dasharray=""/></g><g><g/><text fill="black" stroke="none" font-family="sans-serif" font-size="11pt" font-style="normal" font-weight="normal" text-decoration="normal" x="345.0489914505534" y="112.46787472049999" text-anchor="start" dominant-baseline="alphabetic">Hub Server</text></g></g><g><path fill="none" stroke="none"/><g><path fill="white" stroke="black" paint-order="fill stroke markers" d=" M 453.25245209863147 162.86197690099993 L 575.872328611194 162.86197690099993 L 575.872328611194 206.96702581099993 L 453.25245209863147 206.96702581099993 L 453.25245209863147 162.86197690099993 Z" stroke-miterlimit="10" stroke-width="2.613632528" stroke-dasharray=""/></g><g><g/><text fill="black" stroke="none" font-family="sans-serif" font-size="11pt" font-style="normal" font-weight="normal" text-decoration="normal" x="470.9761476791315" y="190.63182251099994" text-anchor="start" dominant-baseline="alphabetic">Game Server</text></g><g><g><rect fill="white" stroke="none" x="198.50313169425715" y="163.67873706599997" width="79.88980354371094" height="21.23576429"/></g><text fill="black" stroke="none" font-family="sans-serif" font-size="11pt" font-style="normal" font-weight="normal" text-decoration="normal" x="200.95341218925714" y="178.38042003599995" text-anchor="start" dominant-baseline="alphabetic">&lt;&lt;create&gt;&gt;</text></g><g><path fill="none" stroke="black" paint-order="fill stroke markers" d=" M 23.64361483359375 184.91450135599996 L 450.52991821529815 184.91450135599996" stroke-miterlimit="10" stroke-width="1.3612669416666667" stroke-dasharray=""/><g transform="translate(453.25245209863147,184.91450135599996) translate(-453.25245209863147,-184.91450135599996)"><path fill="black" stroke="none" paint-order="stroke fill markers" d=" M 439.6397826819648 178.10816664766662 L 453.25245209863147 184.91450135599996 L 439.6397826819648 191.7208360643333 Z"/></g></g><g><g><rect fill="white" stroke="none" x="68.6555159847038" y="232.85832304149997" width="57.03366340699219" height="21.23576429"/></g><text fill="black" stroke="none" font-family="sans-serif" font-size="11pt" font-style="normal" font-weight="normal" text-decoration="normal" x="71.1057964797038" y="247.56000601149995" text-anchor="start" dominant-baseline="alphabetic">/servers</text></g><g><path fill="none" stroke="black" paint-order="fill stroke markers" d=" M 23.64361483359375 254.09408733149996 L 167.97854665947267 254.09408733149996" stroke-miterlimit="10" stroke-width="1.3612669416666667" stroke-dasharray=""/><g transform="translate(170.701080542806,254.09408733149996) translate(-170.701080542806,-254.09408733149996)"><path fill="black" stroke="none" paint-order="stroke fill markers" d=" M 157.08841112613933 247.28775262316663 L 170.701080542806 254.09408733149996 L 157.08841112613933 260.9004220398333 Z"/></g></g><g><g><rect fill="white" stroke="none" x="236.07616846554689" y="278.59689228149995" width="80.67001594605469" height="21.23576429"/></g><text fill="black" stroke="none" font-family="sans-serif" font-size="11pt" font-style="normal" font-weight="normal" text-decoration="normal" x="238.52644896054687" y="293.2985752514999" text-anchor="start" dominant-baseline="alphabetic">/api/servers</text></g><g><path fill="none" stroke="black" paint-order="fill stroke markers" d=" M 170.701080542806 299.83265657149997 L 379.39873845100914 299.83265657149997" stroke-miterlimit="10" stroke-width="1.3612669416666667" stroke-dasharray=""/><g transform="translate(382.12127233434245,299.83265657149997) translate(-382.12127233434245,-299.83265657149997)"><path fill="black" stroke="none" paint-order="stroke fill markers" d=" M 368.5086029176758 293.02632186316663 L 382.12127233434245 299.83265657149997 L 368.5086029176758 306.6389912798333 Z"/></g></g><g><g><rect fill="white" stroke="none" x="267.8513759850781" y="324.33546152149995" width="17.119600906992186" height="21.23576429"/></g><text fill="black" stroke="none" font-family="sans-serif" font-size="11pt" font-style="normal" font-weight="normal" text-decoration="normal" x="270.3016564800781" y="339.03714449149993" text-anchor="start" dominant-baseline="alphabetic">[ ]</text></g><g><path fill="none" stroke="black" paint-order="fill stroke markers" d=" M 382.12127233434245 345.57122581149997 L 173.42361442613935 345.57122581149997" stroke-miterlimit="10" stroke-width="1.3612669416666667" stroke-dasharray="6.53408132"/><g transform="translate(170.701080542806,345.57122581149997) translate(-170.701080542806,-345.57122581149997)"><path fill="black" stroke="none" paint-order="stroke fill markers" d=" M 184.3137499594727 338.76489110316663 L 170.701080542806 345.57122581149997 L 184.3137499594727 352.3775605198333 Z"/></g></g><g><g><rect fill="white" stroke="none" x="94.72206719319989" y="370.07403076149996" width="4.90056099" height="21.23576429"/></g><text fill="black" stroke="none" font-family="sans-serif" font-size="11pt" font-style="normal" font-weight="normal" text-decoration="normal" x="97.17234768819989" y="384.77571373149993" text-anchor="start" dominant-baseline="alphabetic"></text></g><g><path fill="none" stroke="black" paint-order="fill stroke markers" d=" M 170.701080542806 391.3097950515 L 26.366148716927086 391.3097950515" stroke-miterlimit="10" stroke-width="1.3612669416666667" stroke-dasharray="6.53408132"/><g transform="translate(23.64361483359375,391.3097950515) translate(-23.64361483359375,-391.3097950515)"><path fill="black" stroke="none" paint-order="stroke fill markers" d=" M 37.25628425026042 384.50346034316664 L 23.64361483359375 391.3097950515 L 37.25628425026042 398.1161297598333 Z"/></g></g><g><g><rect fill="white" stroke="none" x="65.39854271810223" y="456.65060825149993" width="63.547609940195315" height="21.23576429"/></g><text fill="black" stroke="none" font-family="sans-serif" font-size="11pt" font-style="normal" font-weight="normal" text-decoration="normal" x="67.84882321310224" y="471.3522912214999" text-anchor="start" dominant-baseline="alphabetic">register()</text></g><g><path fill="none" stroke="black" paint-order="fill stroke markers" d=" M 23.64361483359375 477.88637254149995 L 167.97854665947267 477.88637254149995" stroke-miterlimit="10" stroke-width="1.3612669416666667" stroke-dasharray=""/><g transform="translate(170.701080542806,477.88637254149995) translate(-170.701080542806,-477.88637254149995)"><path fill="black" stroke="none" paint-order="stroke fill markers" d=" M 157.08841112613933 471.0800378331666 L 170.701080542806 477.88637254149995 L 157.08841112613933 484.6927072498333 Z"/></g></g><g><g><rect fill="white" stroke="none" x="213.2630123376172" y="502.38917749149994" width="126.29632820191406" height="21.23576429"/></g><text fill="black" stroke="none" font-family="sans-serif" font-size="11pt" font-style="normal" font-weight="normal" text-decoration="normal" x="215.71329283261719" y="517.0908604614999" text-anchor="start" dominant-baseline="alphabetic">/api/server/register</text></g><g><path fill="none" stroke="black" paint-order="fill stroke markers" d=" M 170.701080542806 523.6249417815 L 379.39873845100914 523.6249417815" stroke-miterlimit="10" stroke-width="1.3612669416666667" stroke-dasharray=""/><g transform="translate(382.12127233434245,523.6249417815) translate(-382.12127233434245,-523.6249417815)"><path fill="black" stroke="none" paint-order="stroke fill markers" d=" M 368.5086029176758 516.8186070731666 L 382.12127233434245 523.6249417815 L 368.5086029176758 530.4312764898333 Z"/></g></g><g><g><rect fill="white" stroke="none" x="412.4806850659362" y="592.2327956414999" width="71.72229255738281" height="21.23576429"/></g><text fill="black" stroke="none" font-family="sans-serif" font-size="11pt" font-style="normal" font-weight="normal" text-decoration="normal" x="414.9309655609362" y="606.9344786114999" text-anchor="start" dominant-baseline="alphabetic">/api/status</text></g><g><path fill="none" stroke="black" paint-order="fill stroke markers" d=" M 382.12127233434245 613.4685599315 L 511.8398564715794 613.4685599315" stroke-miterlimit="10" stroke-width="1.3612669416666667" stroke-dasharray=""/><g transform="translate(514.5623903549127,613.4685599315) translate(-514.5623903549127,-613.4685599315)"><path fill="none" stroke="black" paint-order="fill stroke markers" d=" M 500.949720938246 606.6622252231666 L 513.201123413246 613.4685599315 L 500.949720938246 620.2748946398333" stroke-miterlimit="10" stroke-width="1.3612669416666667"/></g></g><g><g><rect fill="white" stroke="none" x="426.3353679882995" y="637.9713648814999" width="44.01292671265625" height="21.23576429"/></g><text fill="black" stroke="none" font-family="sans-serif" font-size="11pt" font-style="normal" font-weight="normal" text-decoration="normal" x="428.7856484832995" y="652.6730478514999" text-anchor="start" dominant-baseline="alphabetic">status</text></g><g><path fill="none" stroke="black" paint-order="fill stroke markers" d=" M 514.5623903549127 659.2071291714999 L 384.84380621767576 659.2071291714999" stroke-miterlimit="10" stroke-width="1.3612669416666667" stroke-dasharray="6.53408132"/><g transform="translate(382.12127233434245,659.2071291714999) translate(-382.12127233434245,-659.2071291714999)"><path fill="none" stroke="black" paint-order="fill stroke markers" d=" M 395.7339417510091 652.4007944631666 L 383.4825392760091 659.2071291714999 L 395.7339417510091 666.0134638798332" stroke-miterlimit="10" stroke-width="1.3612669416666667"/></g></g><g><g><rect fill="white" stroke="none" x="241.36964838498048" y="708.2127390714999" width="70.0830561071875" height="21.23576429"/></g><text fill="black" stroke="none" font-family="sans-serif" font-size="11pt" font-style="normal" font-weight="normal" text-decoration="normal" x="243.81992887998047" y="722.9144220414998" text-anchor="start" dominant-baseline="alphabetic">serverInfo</text></g><g><path fill="none" stroke="black" paint-order="fill stroke markers" d=" M 382.12127233434245 729.4485033614999 L 173.42361442613935 729.4485033614999" stroke-miterlimit="10" stroke-width="1.3612669416666667" stroke-dasharray="6.53408132"/><g transform="translate(170.701080542806,729.4485033614999) translate(-170.701080542806,-729.4485033614999)"><path fill="black" stroke="none" paint-order="stroke fill markers" d=" M 184.3137499594727 722.6421686531666 L 170.701080542806 729.4485033614999 L 184.3137499594727 736.2548380698332 Z"/></g></g><g><g><rect fill="white" stroke="none" x="94.72206719319989" y="753.9513083114998" width="4.90056099" height="21.23576429"/></g><text fill="black" stroke="none" font-family="sans-serif" font-size="11pt" font-style="normal" font-weight="normal" text-decoration="normal" x="97.17234768819989" y="768.6529912814998" text-anchor="start" dominant-baseline="alphabetic"></text></g><g><path fill="none" stroke="black" paint-order="fill stroke markers" d=" M 170.701080542806 775.1870726014998 L 26.366148716927086 775.1870726014998" stroke-miterlimit="10" stroke-width="1.3612669416666667" stroke-dasharray="6.53408132"/><g transform="translate(23.64361483359375,775.1870726014998) translate(-23.64361483359375,-775.1870726014998)"><path fill="black" stroke="none" paint-order="stroke fill markers" d=" M 37.25628425026042 768.3807378931665 L 23.64361483359375 775.1870726014998 L 37.25628425026042 781.9934073098332 Z"/></g></g><g><path fill="white" stroke="black" paint-order="fill stroke markers" d=" M 84.31850187348049 810.3894357129998 A 9.311065881 9.311065881 0 1 1 84.31849721794792 810.3801246486706 M 75.00743599248048 819.7005015939998 L 75.00743599248048 839.6294496199998 M 63.24608961648048 826.8879910459998 L 86.76878236848049 826.8879910459998 M 75.00743599248048 839.6294496199998 L 63.24608961648048 858.2515813819998 M 75.00743599248048 839.6294496199998 L 86.76878236848049 858.2515813819998" stroke-miterlimit="10" stroke-width="2.7769845610000004" stroke-dasharray=""/></g><g><g/><text fill="black" stroke="none" font-family="sans-serif" font-size="11pt" font-style="normal" font-weight="normal" text-decoration="normal" x="55.45483131718751" y="874.5867846819998" text-anchor="start" dominant-baseline="alphabetic">User2</text></g><g><g><rect fill="white" stroke="none" x="94.33742656414715" y="903.9901506219998" width="57.03366340699219" height="21.23576429"/></g><text fill="black" stroke="none" font-family="sans-serif" font-size="11pt" font-style="normal" font-weight="normal" text-decoration="normal" x="96.78770705914715" y="918.6918335919997" text-anchor="start" dominant-baseline="alphabetic">/servers</text></g><g><path fill="none" stroke="black" paint-order="fill stroke markers" d=" M 75.00743599248048 925.2259149119998 L 167.97854665947267 925.2259149119998" stroke-miterlimit="10" stroke-width="1.3612669416666667" stroke-dasharray=""/><g transform="translate(170.701080542806,925.2259149119998) translate(-170.701080542806,-925.2259149119998)"><path fill="black" stroke="none" paint-order="stroke fill markers" d=" M 157.08841112613933 918.4195802036664 L 170.701080542806 925.2259149119998 L 157.08841112613933 932.0322496203331 Z"/></g></g><g><g><rect fill="white" stroke="none" x="236.07616846554689" y="949.7287198619997" width="80.67001594605469" height="21.23576429"/></g><text fill="black" stroke="none" font-family="sans-serif" font-size="11pt" font-style="normal" font-weight="normal" text-decoration="normal" x="238.52644896054687" y="964.4304028319997" text-anchor="start" dominant-baseline="alphabetic">/api/servers</text></g><g><path fill="none" stroke="black" paint-order="fill stroke markers" d=" M 170.701080542806 970.9644841519997 L 379.39873845100914 970.9644841519997" stroke-miterlimit="10" stroke-width="1.3612669416666667" stroke-dasharray=""/><g transform="translate(382.12127233434245,970.9644841519997) translate(-382.12127233434245,-970.9644841519997)"><path fill="black" stroke="none" paint-order="stroke fill markers" d=" M 368.5086029176758 964.1581494436664 L 382.12127233434245 970.9644841519997 L 368.5086029176758 977.7708188603331 Z"/></g></g><g><g><rect fill="white" stroke="none" x="190.03107111447267" y="995.4672891019997" width="172.76021064820313" height="21.23576429"/></g><text fill="black" stroke="none" font-family="sans-serif" font-size="11pt" font-style="normal" font-weight="normal" text-decoration="normal" x="192.48135160947265" y="1010.1689720719996" text-anchor="start" dominant-baseline="alphabetic">[ {name, url, port, status} ]</text></g><g><path fill="none" stroke="black" paint-order="fill stroke markers" d=" M 382.12127233434245 1016.7030533919997 L 173.42361442613935 1016.7030533919997" stroke-miterlimit="10" stroke-width="1.3612669416666667" stroke-dasharray="6.53408132"/><g transform="translate(170.701080542806,1016.7030533919997) translate(-170.701080542806,-1016.7030533919997)"><path fill="black" stroke="none" paint-order="stroke fill markers" d=" M 184.3137499594727 1009.8967186836663 L 170.701080542806 1016.7030533919997 L 184.3137499594727 1023.509388100333 Z"/></g></g><g><g><rect fill="white" stroke="none" x="120.40397777264324" y="1041.2058583419998" width="4.90056099" height="21.23576429"/></g><text fill="black" stroke="none" font-family="sans-serif" font-size="11pt" font-style="normal" font-weight="normal" text-decoration="normal" x="122.85425826764325" y="1055.907541312" text-anchor="start" dominant-baseline="alphabetic"></text></g><g><path fill="none" stroke="black" paint-order="fill stroke markers" d=" M 170.701080542806 1062.4416226319997 L 77.72996987581382 1062.4416226319997" stroke-miterlimit="10" stroke-width="1.3612669416666667" stroke-dasharray="6.53408132"/><g transform="translate(75.00743599248048,1062.4416226319997) translate(-75.00743599248048,-1062.4416226319997)"><path fill="black" stroke="none" paint-order="stroke fill markers" d=" M 88.62010540914714 1055.6352879236665 L 75.00743599248048 1062.4416226319997 L 88.62010540914714 1069.247957340333 Z"/></g></g><g><g/><path fill="none" stroke="black" paint-order="fill stroke markers" d=" M 324.94806078434243 548.1277467315 L 571.7356019049128 548.1277467315 L 571.7356019049128 683.7099341214999 L 324.94806078434243 683.7099341214999 L 324.94806078434243 548.1277467315 Z" stroke-miterlimit="10" stroke-width="2.3336004714285714" stroke-dasharray=""/><path fill="white" stroke="black" paint-order="fill stroke markers" d=" M 324.94806078434243 548.1277467315 L 324.94806078434243 567.7299906915 L 465.1815319595377 567.7299906915 L 474.9826539395377 557.9288687115 L 474.9826539395377 548.1277467315 L 324.94806078434243 548.1277467315" stroke-miterlimit="10" stroke-width="2.3336004714285714" stroke-dasharray=""/><text fill="black" stroke="none" font-family="sans-serif" font-size="8.8pt" font-style="normal" font-weight="bold" text-decoration="normal" x="341.2832640843424" y="561.1959093715" text-anchor="start" dominant-baseline="alphabetic">Repeat periodically</text></g></g><g/><g/><g/></g></svg>